<svg xmlns="http://www.w3.org/2000/svg" xmlns:xlink="http://www.w3.org/1999/xlink" contentStyleType="text/css" data-diagram-type="DESCRIPTION" height="572px" preserveAspectRatio="none" style="width:363px;height:572px;background:#FFFFFF;" version="1.1" viewBox="0 0 363 572" width="363px" zoomAndPan="magnify"><?plantuml 1.2026.3beta6?><defs/><g><!--cluster ???????????--><g class="cluster" data-qualified-name="..........." data-source-line="5" id="ent0003"><rect fill="none" height="551" rx="2.5" ry="2.5" style="stroke:#181818;stroke-width:1;" width="176.5" x="173" y="7"/><text fill="#000000" font-family="Noto Sans CJK SC" font-size="14" font-weight="700" lengthAdjust="spacing" textLength="153.9993" x="184.2503" y="21.9951">&#20250;&#35805;&#20132;&#20114;&#19982;&#25991;&#26723;&#26381;&#21153;&#27169;&#22359;</text></g><!--entity UC_NewSession--><g class="entity" data-qualified-name="............UC_NewSession" data-source-line="6" id="ent0004"><ellipse cx="261.2473" cy="202.0036" fill="#F1F1F1" rx="52.4973" ry="14.5236" style="stroke:#181818;stroke-width:0.5;"/><text fill="#000000" font-family="Noto Sans CJK SC" font-size="14" lengthAdjust="spacing" textLength="69.9997" x="226.2474" y="206.6521">&#24320;&#21551;&#26032;&#20250;&#35805;</text></g><!--entity UC_Stream--><g class="entity" data-qualified-name="............UC_Stream" data-source-line="7" id="ent0005"><ellipse cx="261.2542" cy="57.0028" fill="#F1F1F1" rx="61.5142" ry="14.7028" style="stroke:#181818;stroke-width:0.5;"/><text fill="#000000" font-family="Noto Sans CJK SC" font-size="14" lengthAdjust="spacing" textLength="83.9996" x="219.2544" y="61.6513">&#23454;&#26102;&#22686;&#37327;&#21576;&#29616;</text></g><!--entity UC_Done--><g class="entity" data-qualified-name="............UC_Done" data-source-line="8" id="ent0006"><ellipse cx="261.2542" cy="121.0028" fill="#F1F1F1" rx="61.5142" ry="14.7028" style="stroke:#181818;stroke-width:0.5;"/><text fill="#000000" font-family="Noto Sans CJK SC" font-size="14" lengthAdjust="spacing" textLength="83.9996" x="219.2544" y="125.6513">&#36820;&#22238;&#23436;&#25104;&#29366;&#24577;</text></g><!--entity UC_History--><g class="entity" data-qualified-name="............UC_History" data-source-line="9" id="ent0007"><ellipse cx="261.2542" cy="266.0028" fill="#F1F1F1" rx="61.5142" ry="14.7028" style="stroke:#181818;stroke-width:0.5;"/><text fill="#000000" font-family="Noto Sans CJK SC" font-size="14" lengthAdjust="spacing" textLength="83.9996" x="219.2544" y="270.6513">&#21382;&#21490;&#20250;&#35805;&#22238;&#35835;</text></g><!--entity UC_Pagination--><g class="entity" data-qualified-name="............UC_Pagination" data-source-line="10" id="ent0008"><ellipse cx="261.2542" cy="330.0028" fill="#F1F1F1" rx="61.5142" ry="14.7028" style="stroke:#181818;stroke-width:0.5;"/><text fill="#000000" font-family="Noto Sans CJK SC" font-size="14" lengthAdjust="spacing" textLength="83.9996" x="219.2544" y="334.6513">&#20998;&#39029;&#35835;&#21462;&#21382;&#21490;</text></g><!--entity UC_FileList--><g class="entity" data-qualified-name="............UC_FileList" data-source-line="11" id="ent0009"><ellipse cx="261.2542" cy="394.0028" fill="#F1F1F1" rx="61.5142" ry="14.7028" style="stroke:#181818;stroke-width:0.5;"/><text fill="#000000" font-family="Noto Sans CJK SC" font-size="14" lengthAdjust="spacing" textLength="83.9996" x="219.2544" y="398.6513">&#26597;&#30475;&#25991;&#20214;&#21015;&#34920;</text></g><!--entity UC_Preview--><g class="entity" data-qualified-name="............UC_Preview" data-source-line="12" id="ent0010"><ellipse cx="261.2542" cy="458.0028" fill="#F1F1F1" rx="61.5142" ry="14.7028" style="stroke:#181818;stroke-width:0.5;"/><text fill="#000000" font-family="Noto Sans CJK SC" font-size="14" lengthAdjust="spacing" textLength="83.9996" x="219.2544" y="462.6513">&#39044;&#35272;&#25991;&#26412;&#20869;&#23481;</text></g><!--entity UC_Download--><g class="entity" data-qualified-name="............UC_Download" data-source-line="13" id="ent0011"><ellipse cx="261.2524" cy="525.0005" fill="#F1F1F1" rx="72.2524" ry="16.8505" style="stroke:#181818;stroke-width:0.5;"/><text fill="#000000" font-family="Noto Sans CJK SC" font-size="14" lengthAdjust="spacing" textLength="111.9995" x="205.2527" y="529.6489">&#29983;&#25104;&#23433;&#20840;&#19979;&#36733;&#38142;&#25509;</text></g><!--entity User--><g class="entity" data-qualified-name="User" data-source-line="3" id="ent0002"><ellipse cx="33.9999" cy="338.35" fill="#F1F1F1" rx="8" ry="8" style="stroke:#181818;stroke-width:0.5;"/><path d="M33.9999,346.35 L33.9999,373.35 M20.9999,354.35 L46.9999,354.35 M33.9999,373.35 L20.9999,388.35 M33.9999,373.35 L46.9999,388.35" fill="none" style="stroke:#181818;stroke-width:0.5;"/><text fill="#000000" font-family="Noto Sans CJK SC" font-size="14" lengthAdjust="spacing" textLength="55.9998" x="6" y="402.8451">&#26222;&#36890;&#29992;&#25143;</text></g><!--link User to UC_NewSession--><g class="link" data-entity-1="ent0002" data-entity-2="ent0004" data-link-type="dependency" data-source-line="16" id="lnk12"><path d="M58.15,329.72 C67.69,315.5 79.45,299.74 92,287 C120.14,258.44 129.36,252.37 165,234 C182.99,224.73 198.4841,219.0176 216.3441,213.6476" fill="none" id="User-to-UC_NewSession" style="stroke:#181818;stroke-width:1;"/><polygon fill="#181818" points="222.09,211.92,212.3194,210.6808,217.3018,213.3597,214.6229,218.342,222.09,211.92" style="stroke:#181818;stroke-width:1;"/></g><!--link User to UC_History--><g class="link" data-entity-1="ent0002" data-entity-2="ent0007" data-link-type="dependency" data-source-line="17" id="lnk13"><path d="M62.22,346.35 C71.37,339.64 81.84,332.56 92,327 C133.02,304.55 178.2043,289.1045 213.2243,278.7945" fill="none" id="User-to-UC_History" style="stroke:#181818;stroke-width:1;"/><polygon fill="#181818" points="218.98,277.1,209.2167,275.8046,214.1835,278.5121,211.4761,283.4789,218.98,277.1" style="stroke:#181818;stroke-width:1;"/></g><!--link User to UC_Pagination--><g class="link" data-entity-1="ent0002" data-entity-2="ent0008" data-link-type="dependency" data-source-line="18" id="lnk14"><path d="M62.25,363.17 C71.67,361.51 82.29,359.66 92,358 C131.4,351.26 170.1201,344.8269 203.5101,339.3169" fill="none" id="User-to-UC_Pagination" style="stroke:#181818;stroke-width:1;"/><polygon fill="#181818" points="209.43,338.34,199.8988,335.8587,204.4967,339.1541,201.2014,343.752,209.43,338.34" style="stroke:#181818;stroke-width:1;"/></g><!--link User to UC_FileList--><g class="link" data-entity-1="ent0002" data-entity-2="ent0009" data-link-type="dependency" data-source-line="19" id="lnk15"><path d="M62.17,371.14 C97.39,375.2 153.6995,381.7025 199.0395,386.9325" fill="none" id="User-to-UC_FileList" style="stroke:#181818;stroke-width:1;"/><polygon fill="#181818" points="205,387.62,196.5176,382.615,200.0329,387.047,195.6009,390.5623,205,387.62" style="stroke:#181818;stroke-width:1;"/></g><!--link User to UC_Preview--><g class="link" data-entity-1="ent0002" data-entity-2="ent0010" data-link-type="dependency" data-source-line="20" id="lnk16"><path d="M62.07,380.99 C88.15,393.28 128.85,411.9 165,426 C183.69,433.29 199.1038,438.6355 216.7038,444.3555" fill="none" id="User-to-UC_Preview" style="stroke:#181818;stroke-width:1;"/><polygon fill="#181818" points="222.41,446.21,215.087,439.6241,217.6548,444.6646,212.6143,447.2324,222.41,446.21" style="stroke:#181818;stroke-width:1;"/></g><!--link User to UC_Download--><g class="link" data-entity-1="ent0002" data-entity-2="ent0011" data-link-type="dependency" data-source-line="21" id="lnk17"><path d="M62.44,401.29 C86.75,428.76 124.58,466.85 165,490 C180.44,498.84 192.8592,504.1999 209.0892,509.8099" fill="none" id="User-to-UC_Download" style="stroke:#181818;stroke-width:1;"/><polygon fill="#181818" points="214.76,511.77,207.5606,505.0493,210.0343,510.1365,204.9471,512.6103,214.76,511.77" style="stroke:#181818;stroke-width:1;"/></g><!--link UC_NewSession to UC_Stream--><g class="link" data-entity-1="ent0004" data-entity-2="ent0005" data-link-type="dependency" data-source-line="23" id="lnk18"><path d="M213.89,195.35 C162.7,185.86 91.36,164.58 114.79,121.5 C132.91,88.18 167.5037,73.4092 201.3037,65.6092" fill="none" id="UC_NewSession-to-UC_Stream" style="stroke:#181818;stroke-width:1;stroke-dasharray:7,7;"/><polygon fill="#181818" points="207.15,64.26,197.481,62.3862,202.278,65.3843,199.2799,70.1813,207.15,64.26" style="stroke:#181818;stroke-width:1;"/><text fill="#000000" font-family="Noto Sans CJK SC" font-size="13" lengthAdjust="spacing" textLength="63.0068" x="93" y="134.5669">&#171;include&#187;</text></g><!--link UC_NewSession to UC_Done--><g class="link" data-entity-1="ent0004" data-entity-2="ent0006" data-link-type="dependency" data-source-line="24" id="lnk19"><path d="M261.25,187.14 C261.25,172.62 261.25,156.62 261.25,142.04" fill="none" id="UC_NewSession-to-UC_Done" style="stroke:#181818;stroke-width:1;stroke-dasharray:7,7;"/><polygon fill="#181818" points="261.25,136.04,257.25,145.04,261.25,141.04,265.25,145.04,261.25,136.04" style="stroke:#181818;stroke-width:1;"/><text fill="#000000" font-family="Noto Sans CJK SC" font-size="13" lengthAdjust="spacing" textLength="63.0068" x="218.25" y="166.1569">&#171;include&#187;</text></g><?plantuml-src RP5VIy9G6CRlpwSuU6yV868tHNGH4KZNST2J3TO6sqmY0eFKfQLMecJ-OPQqYvWIPEQV-Z8xPzktQCEcPzBjm-zzd-TvNm4VgL2LeCmdZrMOu6KSLtb91035LKc64Vfekfc6NJMezXc1I8472fO1y34a9WKC8zQquVHRrlZ56jzRenAjvQd-J9ktfA1JGoUjUWIU0mXJ2euZnUF9D4CgVLeRp0VdIpSFzt0wXXN5zsPXiqthGz9jk_aokTFiqY3WOwgCqGdBEZzLyjGcvWtLAdPXI3EN0RibYJYqjPGZvVUvlpVYz2S1kSChNksp4ApbNFt3OqYvDXyCu7sKv4MahaIcdPxTB7fdi2P3ejKTtGZuRLx0kvu1IxlTA-TLyu_MV2EvB36_5jjbVChZD0lRrOxNZPZN96jOew8pcxaFtxJKM_PCYuA44k020FzFC1hbLcxBoa5PLcCwiV8YUeZzIyXgYmWWv0lNkENJu3hSsE35k91AO8xx5_G_5iP-0G00?></g></svg>