<svg xmlns="http://www.w3.org/2000/svg" xmlns:xlink="http://www.w3.org/1999/xlink" contentStyleType="text/css" data-diagram-type="DESCRIPTION" height="272px" preserveAspectRatio="none" style="width:789px;height:272px;background:#FFFFFF;" version="1.1" viewBox="0 0 789 272" width="789px" zoomAndPan="magnify"><?plantuml 1.2026.3beta6?><defs/><g><!--cluster ?????????--><g class="cluster" data-qualified-name="........." data-source-line="5" id="ent0003"><rect fill="none" height="217" rx="2.5" ry="2.5" style="stroke:#181818;stroke-width:1;" width="694.53" x="81" y="7"/><text fill="#000000" font-family="Noto Sans CJK SC" font-size="14" font-weight="700" lengthAdjust="spacing" textLength="125.9995" x="365.2653" y="21.9951">&#25991;&#26723;&#25509;&#20837;&#19982;&#22788;&#29702;&#27169;&#22359;</text></g><!--entity UC_Upload--><g class="entity" data-qualified-name="..........UC_Upload" data-source-line="6" id="ent0004"><ellipse cx="163.7278" cy="70.0036" fill="#F1F1F1" rx="42.5978" ry="14.5236" style="stroke:#181818;stroke-width:0.5;"/><text fill="#000000" font-family="Noto Sans CJK SC" font-size="14" lengthAdjust="spacing" textLength="55.9998" x="135.7279" y="74.6521">&#19978;&#20256;&#25991;&#26723;</text></g><!--entity UC_Delete--><g class="entity" data-qualified-name="..........UC_Delete" data-source-line="7" id="ent0005"><ellipse cx="433.4778" cy="193.0036" fill="#F1F1F1" rx="42.5978" ry="14.5236" style="stroke:#181818;stroke-width:0.5;"/><text fill="#000000" font-family="Noto Sans CJK SC" font-size="14" lengthAdjust="spacing" textLength="55.9998" x="405.4779" y="197.6521">&#21024;&#38500;&#25991;&#26723;</text></g><!--entity UC_UploadStatus--><g class="entity" data-qualified-name="..........UC_UploadStatus" data-source-line="8" id="ent0006"><ellipse cx="698.0242" cy="193.0028" fill="#F1F1F1" rx="61.5142" ry="14.7028" style="stroke:#181818;stroke-width:0.5;"/><text fill="#000000" font-family="Noto Sans CJK SC" font-size="14" lengthAdjust="spacing" textLength="83.9996" x="656.0244" y="197.6513">&#26597;&#35810;&#19978;&#20256;&#29366;&#24577;</text></g><!--entity UC_Resume--><g class="entity" data-qualified-name="..........UC_Resume" data-source-line="9" id="ent0007"><ellipse cx="433.4759" cy="124.9952" fill="#F1F1F1" rx="78.0259" ry="18.0052" style="stroke:#181818;stroke-width:0.5;"/><text fill="#000000" font-family="Noto Sans CJK SC" font-size="14" lengthAdjust="spacing" textLength="125.9995" x="370.4762" y="129.6436">&#20998;&#29255;&#19978;&#20256;&#19982;&#26029;&#28857;&#32493;&#20256;</text></g><!--entity UC_Validate--><g class="entity" data-qualified-name="..........UC_Validate" data-source-line="10" id="ent0008"><ellipse cx="163.7252" cy="151.995" fill="#F1F1F1" rx="66.7252" ry="15.745" style="stroke:#181818;stroke-width:0.5;"/><text fill="#000000" font-family="Noto Sans CJK SC" font-size="14" lengthAdjust="spacing" textLength="97.9996" x="114.7254" y="156.6435">&#26684;&#24335;&#19982;&#20869;&#23481;&#26657;&#39564;</text></g><!--entity UC_Integrity--><g class="entity" data-qualified-name="..........UC_Integrity" data-source-line="11" id="ent0009"><ellipse cx="698.0173" cy="107.0036" fill="#F1F1F1" rx="52.4973" ry="14.5236" style="stroke:#181818;stroke-width:0.5;"/><text fill="#000000" font-family="Noto Sans CJK SC" font-size="14" lengthAdjust="spacing" textLength="69.9997" x="663.0174" y="111.6521">&#23436;&#25972;&#24615;&#26657;&#39564;</text></g><!--entity UC_Ingest--><g class="entity" data-qualified-name="..........UC_Ingest" data-source-line="12" id="ent0010"><ellipse cx="433.4778" cy="57.0036" fill="#F1F1F1" rx="42.5978" ry="14.5236" style="stroke:#181818;stroke-width:0.5;"/><text fill="#000000" font-family="Noto Sans CJK SC" font-size="14" lengthAdjust="spacing" textLength="55.9998" x="405.4779" y="61.6521">&#24322;&#27493;&#20837;&#24211;</text></g><!--entity User--><g class="entity" data-qualified-name="User" data-source-line="3" id="ent0002"><ellipse cx="19.9999" cy="191.35" fill="#F1F1F1" rx="8" ry="8" style="stroke:#181818;stroke-width:0.5;"/><path d="M19.9999,199.35 L19.9999,226.35 M6.9999,207.35 L32.9999,207.35 M19.9999,226.35 L6.9999,241.35 M19.9999,226.35 L32.9999,241.35" fill="none" style="stroke:#181818;stroke-width:0.5;"/><text fill="#000000" font-family="Noto Sans CJK SC" font-size="14" lengthAdjust="spacing" textLength="27.9999" x="6" y="255.8451">&#29992;&#25143;</text></g><!--link UC_Upload to UC_Delete--><!--link UC_Delete to UC_UploadStatus--><!--link UC_Upload to UC_Validate--><!--link UC_Upload to UC_Validate--><g class="link" data-entity-1="ent0004" data-entity-2="ent0008" data-link-type="dependency" data-source-line="29" id="lnk20"><path d="M163.73,84.79 C163.73,99.17 163.73,114.96 163.73,129.8" fill="none" id="UC_Upload-to-UC_Validate-1" style="stroke:#181818;stroke-width:1;stroke-dasharray:7,7;"/><polygon fill="#181818" points="163.73,135.8,167.73,126.8,163.73,130.8,159.73,126.8,163.73,135.8" style="stroke:#181818;stroke-width:1;"/><text fill="#000000" font-family="Noto Sans CJK SC" font-size="13" lengthAdjust="spacing" textLength="63.0068" x="120.73" y="114.9569">&#171;include&#187;</text></g><!--link UC_Validate to UC_Resume--><!--link UC_Resume to UC_Integrity--><!--link UC_Resume to UC_Integrity--><g class="link" data-entity-1="ent0007" data-entity-2="ent0009" data-link-type="dependency" data-source-line="31" id="lnk22"><path d="M508.66,119.92 C552.78,116.89 601.6141,113.5404 640.7041,110.8604" fill="none" id="UC_Resume-to-UC_Integrity-1" style="stroke:#181818;stroke-width:1;stroke-dasharray:7,7;"/><polygon fill="#181818" points="646.69,110.45,637.4375,107.075,641.7017,110.792,637.9847,115.0562,646.69,110.45" style="stroke:#181818;stroke-width:1;"/><text fill="#000000" font-family="Noto Sans CJK SC" font-size="13" lengthAdjust="spacing" textLength="63.0068" x="542.5" y="110.0669">&#171;include&#187;</text></g><!--link UC_Resume to UC_Ingest--><!--link User to UC_Upload--><g class="link" data-entity-1="ent0002" data-entity-2="ent0004" data-link-type="dependency" data-source-line="25" id="lnk17"><path d="M34.1,182.7 C42.67,161.95 55.54,136.96 73,119 C89.95,101.57 108.9295,91.1103 128.0495,82.9703" fill="none" id="User-to-UC_Upload" style="stroke:#181818;stroke-width:1;"/><polygon fill="#181818" points="133.57,80.62,123.7224,80.465,128.9696,82.5786,126.8561,87.8258,133.57,80.62" style="stroke:#181818;stroke-width:1;"/></g><!--link User to UC_Delete--><g class="link" data-entity-1="ent0002" data-entity-2="ent0005" data-link-type="dependency" data-source-line="26" id="lnk18"><path d="M34.22,220.1 C89.18,216.36 294.8538,202.3674 385.2138,196.2174" fill="none" id="User-to-UC_Delete" style="stroke:#181818;stroke-width:1;"/><polygon fill="#181818" points="391.2,195.81,381.9492,192.4304,386.2115,196.1495,382.4924,200.4119,391.2,195.81" style="stroke:#181818;stroke-width:1;"/></g><!--link User to UC_UploadStatus--><g class="link" data-entity-1="ent0002" data-entity-2="ent0006" data-link-type="dependency" data-source-line="27" id="lnk19"><path d="M34.12,223.31 C42.61,224.69 53.92,226.3 64,227 C64.44,227.03 64.56,227 65,227 C263.45,226.56 313.82,242.37 511.5,225 C559.69,220.77 608.2836,211.9417 645.6736,204.2317" fill="none" id="User-to-UC_UploadStatus" style="stroke:#181818;stroke-width:1;"/><polygon fill="#181818" points="651.55,203.02,641.9276,200.92,646.653,204.0298,643.5433,208.7552,651.55,203.02" style="stroke:#181818;stroke-width:1;"/></g><!--link UC_Upload to UC_Resume--><g class="link" data-entity-1="ent0004" data-entity-2="ent0007" data-link-type="dependency" data-source-line="30" id="lnk21"><path d="M200.15,77.96 C218.18,81.96 240.46,86.83 260.45,91 C297.55,98.74 333.3708,105.8424 366.4208,112.2824" fill="none" id="UC_Upload-to-UC_Resume" style="stroke:#181818;stroke-width:1;stroke-dasharray:7,7;"/><polygon fill="#181818" points="372.31,113.43,364.2412,107.7825,367.4023,112.4737,362.7111,115.6348,372.31,113.43" style="stroke:#181818;stroke-width:1;"/><text fill="#000000" font-family="Noto Sans CJK SC" font-size="13" lengthAdjust="spacing" textLength="63.0068" x="261.45" y="87.0669">&#171;include&#187;</text></g><!--link UC_Upload to UC_Ingest--><g class="link" data-entity-1="ent0004" data-entity-2="ent0010" data-link-type="dependency" data-source-line="32" id="lnk23"><path d="M206.27,67.98 C256.5,65.55 334.5671,61.7508 384.8471,59.3108" fill="none" id="UC_Upload-to-UC_Ingest" style="stroke:#181818;stroke-width:1;stroke-dasharray:7,7;"/><polygon fill="#181818" points="390.84,59.02,381.6567,55.4609,385.8459,59.2624,382.0445,63.4515,390.84,59.02" style="stroke:#181818;stroke-width:1;"/><text fill="#000000" font-family="Noto Sans CJK SC" font-size="13" lengthAdjust="spacing" textLength="41.9073" x="272.45" y="59.0669">&#171;&#35302;&#21457;&#187;</text></g><?plantuml-src TPBBIWCn58RtynI7RborxaLdenktYcv49Cx4CH0pCiaW8eAArWlY1M-u45krAa9r8rxxE4r6tyA9CvrEQBlB2L_-yv__XE8v0SA7W7Zp0bmIO4SGdraMSeGVG24wVLGxxmL072Ou3YnB0uXv54D1dM-hwgqwgCcjMlFZGDvjHaTbzLYLLnS5MB40GeuTn6Eo-R7NR5GIFj4QdfbOf3voyvJSgVnUtfdK2APOu3obhci_BpU9OhJtfjRMJSLnWKJ8JTrojBkTl8XzglDwjF4PVTVZilLq3FDmmMnJQSZ6eHwhl2MVFrMb-lkqty8d4IKkCdt9vtrrzghM7anqb0di1KGi6snZGzLrRFBhf0rwc0ihnlg0ecK_5E3uZ8i04IRu052zASUduGA38IqL54MyDGy7sDKbQ6azTvO45AVcYUjYDktwIwne6tbcvswKaMHFHycVoImHvj3GZStqGzkOWnRHBA54a5xU_bMIjhbOSrKtWzc-idCtAfzz5p3NEGr_rRBqBuTYFWRZAislasg5rPwmPCm40p0uc4PasnrOwgq3IkzBvZoznKgvSVwfduTxUNXisty0?></g></svg>