<svg xmlns="http://www.w3.org/2000/svg" xmlns:xlink="http://www.w3.org/1999/xlink" contentStyleType="text/css" data-diagram-type="DESCRIPTION" height="473px" preserveAspectRatio="none" style="width:314px;height:473px;background:#FFFFFF;" version="1.1" viewBox="0 0 314 473" width="314px" zoomAndPan="magnify"><?plantuml 1.2026.3beta6?><defs/><g><!--cluster ???????--><g class="cluster" data-qualified-name="......." data-source-line="5" id="ent0003"><rect fill="none" height="452" rx="2.5" ry="2.5" style="stroke:#181818;stroke-width:1;" width="155.03" x="145" y="7"/><text fill="#000000" font-family="Noto Sans CJK SC" font-size="14" font-weight="700" lengthAdjust="spacing" textLength="97.9996" x="173.5152" y="21.9951">&#26816;&#32034;&#19982;&#38382;&#31572;&#27169;&#22359;</text></g><!--entity UC_QA--><g class="entity" data-qualified-name="........UC_QA" data-source-line="6" id="ent0004"><ellipse cx="222.5078" cy="347.0036" fill="#F1F1F1" rx="42.5978" ry="14.5236" style="stroke:#181818;stroke-width:0.5;"/><text fill="#000000" font-family="Noto Sans CJK SC" font-size="14" lengthAdjust="spacing" textLength="55.9998" x="194.5079" y="351.6521">&#30693;&#35782;&#38382;&#31572;</text></g><!--entity UC_Retrieve--><g class="entity" data-qualified-name="........UC_Retrieve" data-source-line="7" id="ent0005"><ellipse cx="222.5078" cy="202.0036" fill="#F1F1F1" rx="42.5978" ry="14.5236" style="stroke:#181818;stroke-width:0.5;"/><text fill="#000000" font-family="Noto Sans CJK SC" font-size="14" lengthAdjust="spacing" textLength="55.9998" x="194.5079" y="206.6521">&#30693;&#35782;&#26816;&#32034;</text></g><!--entity UC_Filter--><g class="entity" data-qualified-name="........UC_Filter" data-source-line="8" id="ent0006"><ellipse cx="222.5078" cy="57.0036" fill="#F1F1F1" rx="42.5978" ry="14.5236" style="stroke:#181818;stroke-width:0.5;"/><text fill="#000000" font-family="Noto Sans CJK SC" font-size="14" lengthAdjust="spacing" textLength="55.9998" x="194.5079" y="61.6521">&#26435;&#38480;&#36807;&#28388;</text></g><!--entity UC_Rerank--><g class="entity" data-qualified-name="........UC_Rerank" data-source-line="9" id="ent0007"><ellipse cx="222.5142" cy="121.0028" fill="#F1F1F1" rx="61.5142" ry="14.7028" style="stroke:#181818;stroke-width:0.5;"/><text fill="#000000" font-family="Noto Sans CJK SC" font-size="14" lengthAdjust="spacing" textLength="83.9996" x="180.5144" y="125.6513">&#32467;&#26524;&#25490;&#24207;&#20248;&#21270;</text></g><!--entity UC_Citation--><g class="entity" data-qualified-name="........UC_Citation" data-source-line="10" id="ent0008"><ellipse cx="222.5078" cy="266.0036" fill="#F1F1F1" rx="42.5978" ry="14.5236" style="stroke:#181818;stroke-width:0.5;"/><text fill="#000000" font-family="Noto Sans CJK SC" font-size="14" lengthAdjust="spacing" textLength="55.9998" x="194.5079" y="270.6521">&#26469;&#28304;&#22238;&#28335;</text></g><!--entity UC_FollowUp--><g class="entity" data-qualified-name="........UC_FollowUp" data-source-line="11" id="ent0009"><ellipse cx="222.5078" cy="428.0036" fill="#F1F1F1" rx="42.5978" ry="14.5236" style="stroke:#181818;stroke-width:0.5;"/><text fill="#000000" font-family="Noto Sans CJK SC" font-size="14" lengthAdjust="spacing" textLength="55.9998" x="194.5079" y="432.6521">&#22810;&#36718;&#36861;&#38382;</text></g><!--entity User--><g class="entity" data-qualified-name="User" data-source-line="3" id="ent0002"><ellipse cx="19.9999" cy="363.35" fill="#F1F1F1" rx="8" ry="8" style="stroke:#181818;stroke-width:0.5;"/><path d="M19.9999,371.35 L19.9999,398.35 M6.9999,379.35 L32.9999,379.35 M19.9999,398.35 L6.9999,413.35 M19.9999,398.35 L32.9999,413.35" fill="none" style="stroke:#181818;stroke-width:0.5;"/><text fill="#000000" font-family="Noto Sans CJK SC" font-size="14" lengthAdjust="spacing" textLength="27.9999" x="6" y="427.8451">&#29992;&#25143;</text></g><!--link User to UC_QA--><g class="link" data-entity-1="ent0002" data-entity-2="ent0004" data-link-type="dependency" data-source-line="14" id="lnk10"><path d="M34.47,389.91 C65.2,382.86 135.472,366.7421 180.572,356.3921" fill="none" id="User-to-UC_QA" style="stroke:#181818;stroke-width:1;"/><polygon fill="#181818" points="186.42,355.05,176.7533,353.1644,181.5467,356.1684,178.5427,360.9617,186.42,355.05" style="stroke:#181818;stroke-width:1;"/></g><!--link User to UC_FollowUp--><g class="link" data-entity-1="ent0002" data-entity-2="ent0009" data-link-type="dependency" data-source-line="15" id="lnk11"><path d="M34.47,395.35 C64.67,400.62 132.8193,412.5188 178.1593,420.4288" fill="none" id="User-to-UC_FollowUp" style="stroke:#181818;stroke-width:1;"/><polygon fill="#181818" points="184.07,421.46,175.8914,415.9727,179.1444,420.6007,174.5165,423.8537,184.07,421.46" style="stroke:#181818;stroke-width:1;"/></g><!--link UC_QA to UC_Retrieve--><g class="link" data-entity-1="ent0004" data-entity-2="ent0005" data-link-type="dependency" data-source-line="17" id="lnk12"><path d="M183.53,340.75 C150.98,333.24 106.54,317.17 85,283.5 C58.46,242 128.9564,220.095 178.2964,209.805" fill="none" id="UC_QA-to-UC_Retrieve" style="stroke:#181818;stroke-width:1;stroke-dasharray:7,7;"/><polygon fill="#181818" points="184.17,208.58,174.5429,206.5017,179.2753,209.6008,176.1762,214.3332,184.17,208.58" style="stroke:#181818;stroke-width:1;"/><text fill="#000000" font-family="Noto Sans CJK SC" font-size="13" lengthAdjust="spacing" textLength="63.0068" x="65" y="279.5669">&#171;include&#187;</text></g><!--link UC_Retrieve to UC_Filter--><g class="link" data-entity-1="ent0005" data-entity-2="ent0006" data-link-type="dependency" data-source-line="18" id="lnk13"><path d="M183.53,195.75 C150.98,188.24 106.54,172.17 85,138.5 C58.46,97 128.9564,75.095 178.2964,64.805" fill="none" id="UC_Retrieve-to-UC_Filter" style="stroke:#181818;stroke-width:1;stroke-dasharray:7,7;"/><polygon fill="#181818" points="184.17,63.58,174.5429,61.5017,179.2753,64.6008,176.1762,69.3332,184.17,63.58" style="stroke:#181818;stroke-width:1;"/><text fill="#000000" font-family="Noto Sans CJK SC" font-size="13" lengthAdjust="spacing" textLength="63.0068" x="65" y="134.5669">&#171;include&#187;</text></g><!--link UC_Retrieve to UC_Rerank--><g class="link" data-entity-1="ent0005" data-entity-2="ent0007" data-link-type="dependency" data-source-line="19" id="lnk14"><path d="M222.51,187.14 C222.51,172.62 222.51,156.62 222.51,142.04" fill="none" id="UC_Retrieve-to-UC_Rerank" style="stroke:#181818;stroke-width:1;stroke-dasharray:7,7;"/><polygon fill="#181818" points="222.51,136.04,218.51,145.04,222.51,141.04,226.51,145.04,222.51,136.04" style="stroke:#181818;stroke-width:1;"/><text fill="#000000" font-family="Noto Sans CJK SC" font-size="13" lengthAdjust="spacing" textLength="63.0068" x="179.51" y="166.1569">&#171;include&#187;</text></g><!--link UC_QA to UC_Citation--><g class="link" data-entity-1="ent0004" data-entity-2="ent0008" data-link-type="dependency" data-source-line="20" id="lnk15"><path d="M222.51,332.14 C222.51,317.53 222.51,301.34 222.51,286.76" fill="none" id="UC_QA-to-UC_Citation" style="stroke:#181818;stroke-width:1;stroke-dasharray:7,7;"/><polygon fill="#181818" points="222.51,280.76,218.51,289.76,222.51,285.76,226.51,289.76,222.51,280.76" style="stroke:#181818;stroke-width:1;"/><text fill="#000000" font-family="Noto Sans CJK SC" font-size="13" lengthAdjust="spacing" textLength="63.0068" x="179.51" y="311.0669">&#171;include&#187;</text></g><!--link UC_FollowUp to UC_QA--><g class="link" data-entity-1="ent0009" data-entity-2="ent0004" data-link-type="dependency" data-source-line="21" id="lnk16"><path d="M222.51,413.14 C222.51,398.53 222.51,382.34 222.51,367.76" fill="none" id="UC_FollowUp-to-UC_QA" style="stroke:#181818;stroke-width:1;stroke-dasharray:7,7;"/><polygon fill="#181818" points="222.51,361.76,218.51,370.76,222.51,366.76,226.51,370.76,222.51,361.76" style="stroke:#181818;stroke-width:1;"/><text fill="#000000" font-family="Noto Sans CJK SC" font-size="13" lengthAdjust="spacing" textLength="61.1851" x="180.51" y="392.0669">&#171;extend&#187;</text></g><?plantuml-src XT1FIyCm60RmUpx5I-_p0yW8oC2xmiuIsZY3ePKqKq44GL0FCeSEvxzDr0rsSRi8IkVObrdJxblOBckDzE0nv9VdVPzmkYr1UY1ORKU2mmIr9VDSX8WjFG5Mr1geYqyBY0zLdmg4Ka3S6gTWgRUJwEDrzjMOjuVHUqiDNi9Esu8Z153tgKtyn4JF_NXqfe5EgMnjh1M5pih49fM2qNrgEjKvdTytu-cv6lSojywuJ9OoqyOtglka6jTXS3NxlWilRtyp1N5t_oRsLT0C7xig66MgmYHPV83Xmjv3F1d6qqbI8v_iSUuTLFVGCKBfnq2fX9VTp6FEqE8ELh1P3rQXN6QkpUiEnHYPDnhgVlyoNQt8ye5PgoB95bp2v4LAwA6aheFn3m00?></g></svg>