<svg xmlns="http://www.w3.org/2000/svg" xmlns:xlink="http://www.w3.org/1999/xlink" contentStyleType="text/css" data-diagram-type="DESCRIPTION" height="646px" preserveAspectRatio="none" style="width:311px;height:646px;background:#FFFFFF;" version="1.1" viewBox="0 0 311 646" width="311px" zoomAndPan="magnify"><?plantuml 1.2026.3beta6?><defs/><g><!--cluster ?????????--><g class="cluster" data-qualified-name="........." data-source-line="7" id="ent0005"><rect fill="none" height="625" rx="2.5" ry="2.5" style="stroke:#181818;stroke-width:1;" width="188.05" x="109" y="7"/><text fill="#000000" font-family="Noto Sans CJK SC" font-size="14" font-weight="700" lengthAdjust="spacing" textLength="125.9995" x="140.0253" y="21.9951">&#29992;&#25143;&#19982;&#32452;&#32455;&#31649;&#29702;&#27169;&#22359;</text></g><!--entity UC_Register--><g class="entity" data-qualified-name="..........UC_Register" data-source-line="8" id="ent0006"><ellipse cx="203.0278" cy="341.0036" fill="#F1F1F1" rx="42.5978" ry="14.5236" style="stroke:#181818;stroke-width:0.5;"/><text fill="#000000" font-family="Noto Sans CJK SC" font-size="14" lengthAdjust="spacing" textLength="55.9998" x="175.0279" y="345.6521">&#29992;&#25143;&#27880;&#20876;</text></g><!--entity UC_Login--><g class="entity" data-qualified-name="..........UC_Login" data-source-line="9" id="ent0007"><ellipse cx="203.0278" cy="405.0036" fill="#F1F1F1" rx="42.5978" ry="14.5236" style="stroke:#181818;stroke-width:0.5;"/><text fill="#000000" font-family="Noto Sans CJK SC" font-size="14" lengthAdjust="spacing" textLength="55.9998" x="175.0279" y="409.6521">&#29992;&#25143;&#30331;&#24405;</text></g><!--entity UC_Logout--><g class="entity" data-qualified-name="..........UC_Logout" data-source-line="10" id="ent0008"><ellipse cx="203.0278" cy="469.0036" fill="#F1F1F1" rx="42.5978" ry="14.5236" style="stroke:#181818;stroke-width:0.5;"/><text fill="#000000" font-family="Noto Sans CJK SC" font-size="14" lengthAdjust="spacing" textLength="55.9998" x="175.0279" y="473.6521">&#29992;&#25143;&#30331;&#20986;</text></g><!--entity UC_Profile--><g class="entity" data-qualified-name="..........UC_Profile" data-source-line="11" id="ent0009"><ellipse cx="203.0324" cy="535.0005" fill="#F1F1F1" rx="72.2524" ry="16.8505" style="stroke:#181818;stroke-width:0.5;"/><text fill="#000000" font-family="Noto Sans CJK SC" font-size="14" lengthAdjust="spacing" textLength="111.9995" x="147.0327" y="539.6489">&#24403;&#21069;&#29992;&#25143;&#20449;&#24687;&#26597;&#35810;</text></g><!--entity UC_SwitchOrg--><g class="entity" data-qualified-name="..........UC_SwitchOrg" data-source-line="12" id="ent0010"><ellipse cx="203.0273" cy="601.0036" fill="#F1F1F1" rx="52.4973" ry="14.5236" style="stroke:#181818;stroke-width:0.5;"/><text fill="#000000" font-family="Noto Sans CJK SC" font-size="14" lengthAdjust="spacing" textLength="69.9997" x="168.0274" y="605.6521">&#20999;&#25442;&#20027;&#32452;&#32455;</text></g><!--entity UC_InitPrivate--><g class="entity" data-qualified-name="..........UC_InitPrivate" data-source-line="13" id="ent0011"><ellipse cx="203.0259" cy="256.9952" fill="#F1F1F1" rx="78.0259" ry="18.0052" style="stroke:#181818;stroke-width:0.5;"/><text fill="#000000" font-family="Noto Sans CJK SC" font-size="14" lengthAdjust="spacing" textLength="125.9995" x="140.0262" y="261.6436">&#31169;&#20154;&#32452;&#32455;&#26631;&#31614;&#21021;&#22987;&#21270;</text></g><!--entity UC_OrgManage--><g class="entity" data-qualified-name="..........UC_OrgManage" data-source-line="14" id="ent0012"><ellipse cx="203.0342" cy="57.0028" fill="#F1F1F1" rx="61.5142" ry="14.7028" style="stroke:#181818;stroke-width:0.5;"/><text fill="#000000" font-family="Noto Sans CJK SC" font-size="14" lengthAdjust="spacing" textLength="83.9996" x="161.0344" y="61.6513">&#32452;&#32455;&#26631;&#31614;&#31649;&#29702;</text></g><!--entity UC_UserManage--><g class="entity" data-qualified-name="..........UC_UserManage" data-source-line="15" id="ent0013"><ellipse cx="203.0278" cy="121.0036" fill="#F1F1F1" rx="42.5978" ry="14.5236" style="stroke:#181818;stroke-width:0.5;"/><text fill="#000000" font-family="Noto Sans CJK SC" font-size="14" lengthAdjust="spacing" textLength="55.9998" x="175.0279" y="125.6521">&#29992;&#25143;&#31649;&#29702;</text></g><!--entity UC_Scope--><g class="entity" data-qualified-name="..........UC_Scope" data-source-line="16" id="ent0014"><ellipse cx="203.0324" cy="187.0005" fill="#F1F1F1" rx="72.2524" ry="16.8505" style="stroke:#181818;stroke-width:0.5;"/><text fill="#000000" font-family="Noto Sans CJK SC" font-size="14" lengthAdjust="spacing" textLength="111.9995" x="147.0327" y="191.6489">&#29992;&#25143;&#35775;&#38382;&#33539;&#22260;&#37197;&#32622;</text></g><!--entity User--><g class="entity" data-qualified-name="User" data-source-line="3" id="ent0002"><ellipse cx="33.9999" cy="412.35" fill="#F1F1F1" rx="8" ry="8" style="stroke:#181818;stroke-width:0.5;"/><path d="M33.9999,420.35 L33.9999,447.35 M20.9999,428.35 L46.9999,428.35 M33.9999,447.35 L20.9999,462.35 M33.9999,447.35 L46.9999,462.35" fill="none" style="stroke:#181818;stroke-width:0.5;"/><text fill="#000000" font-family="Noto Sans CJK SC" font-size="14" lengthAdjust="spacing" textLength="55.9998" x="6" y="476.8451">&#26222;&#36890;&#29992;&#25143;</text></g><!--entity Admin--><g class="entity" data-qualified-name="Admin" data-source-line="4" id="ent0003"><ellipse cx="33.9999" cy="125.35" fill="#F1F1F1" rx="8" ry="8" style="stroke:#181818;stroke-width:0.5;"/><path d="M33.9999,133.35 L33.9999,160.35 M20.9999,141.35 L46.9999,141.35 M33.9999,160.35 L20.9999,175.35 M33.9999,160.35 L46.9999,175.35" fill="none" style="stroke:#181818;stroke-width:0.5;"/><text fill="#000000" font-family="Noto Sans CJK SC" font-size="14" lengthAdjust="spacing" textLength="41.9998" x="13" y="189.8451">&#31649;&#29702;&#21592;</text></g><!--link Admin to User--><g class="link" data-entity-1="ent0003" data-entity-2="ent0002" data-link-type="extension" data-source-line="5" id="lnk4"><path d="M34,193.36 C34,263.44 34,315.52 34,385.6" fill="none" id="Admin-to-User" style="stroke:#181818;stroke-width:1;"/><polygon fill="none" points="34,403.6,40,385.6,28,385.6,34,403.6" style="stroke:#181818;stroke-width:1;"/></g><!--link User to UC_Register--><g class="link" data-entity-1="ent0002" data-entity-2="ent0006" data-link-type="dependency" data-source-line="19" id="lnk15"><path d="M62.34,406.84 C73.26,394.71 86.65,381.94 101,373 C120.52,360.84 139.2329,354.3498 159.2429,349.4398" fill="none" id="User-to-UC_Register" style="stroke:#181818;stroke-width:1;"/><polygon fill="#181818" points="165.07,348.01,155.3761,346.27,160.2141,349.2015,157.2825,354.0395,165.07,348.01" style="stroke:#181818;stroke-width:1;"/></g><!--link User to UC_Login--><g class="link" data-entity-1="ent0002" data-entity-2="ent0007" data-link-type="dependency" data-source-line="20" id="lnk16"><path d="M62.21,435.97 C90.59,429.69 129.3417,421.0964 160.5217,414.1964" fill="none" id="User-to-UC_Login" style="stroke:#181818;stroke-width:1;"/><polygon fill="#181818" points="166.38,412.9,156.7283,410.9391,161.4981,413.9803,158.4569,418.7501,166.38,412.9" style="stroke:#181818;stroke-width:1;"/></g><!--link User to UC_Logout--><g class="link" data-entity-1="ent0002" data-entity-2="ent0008" data-link-type="dependency" data-source-line="21" id="lnk17"><path d="M62.21,446.4 C89.85,450.87 126.967,456.8618 157.997,461.8818" fill="none" id="User-to-UC_Logout" style="stroke:#181818;stroke-width:1;"/><polygon fill="#181818" points="163.92,462.84,155.6743,457.454,158.9842,462.0415,154.3967,465.3513,163.92,462.84" style="stroke:#181818;stroke-width:1;"/></g><!--link User to UC_Profile--><g class="link" data-entity-1="ent0002" data-entity-2="ent0009" data-link-type="dependency" data-source-line="22" id="lnk18"><path d="M62.24,470.89 C73.44,481.5 87.05,492.88 101,501 C116.75,510.17 129.6166,515.5194 146.5266,520.8394" fill="none" id="User-to-UC_Profile" style="stroke:#181818;stroke-width:1;"/><polygon fill="#181818" points="152.25,522.64,144.8653,516.1234,147.4805,521.1395,142.4644,523.7547,152.25,522.64" style="stroke:#181818;stroke-width:1;"/></g><!--link User to UC_SwitchOrg--><g class="link" data-entity-1="ent0002" data-entity-2="ent0010" data-link-type="dependency" data-source-line="23" id="lnk19"><path d="M46.12,480.43 C56.15,508.67 73.61,545.97 101,569 C116.42,581.97 131.3044,588.2539 149.9644,592.8539" fill="none" id="User-to-UC_SwitchOrg" style="stroke:#181818;stroke-width:1;"/><polygon fill="#181818" points="155.79,594.29,148.009,588.2521,150.9353,593.0932,146.0942,596.0196,155.79,594.29" style="stroke:#181818;stroke-width:1;"/></g><!--link Admin to UC_OrgManage--><g class="link" data-entity-1="ent0003" data-entity-2="ent0012" data-link-type="dependency" data-source-line="25" id="lnk20"><path d="M55.27,129.43 C67.29,115.76 83.55,99.6 101,89 C117.59,78.92 131.8811,73.3237 149.7511,68.3337" fill="none" id="Admin-to-UC_OrgManage" style="stroke:#181818;stroke-width:1;"/><polygon fill="#181818" points="155.53,66.72,145.7858,65.2879,150.7142,68.0648,147.9374,72.9932,155.53,66.72" style="stroke:#181818;stroke-width:1;"/></g><!--link Admin to UC_UserManage--><g class="link" data-entity-1="ent0003" data-entity-2="ent0013" data-link-type="dependency" data-source-line="26" id="lnk21"><path d="M55.48,150.83 C82.92,145.25 126.1906,136.4368 159.9406,129.5668" fill="none" id="Admin-to-UC_UserManage" style="stroke:#181818;stroke-width:1;"/><polygon fill="#181818" points="165.82,128.37,156.203,126.2456,160.9205,129.3673,157.7987,134.0848,165.82,128.37" style="stroke:#181818;stroke-width:1;"/></g><!--link Admin to UC_Scope--><g class="link" data-entity-1="ent0003" data-entity-2="ent0014" data-link-type="dependency" data-source-line="27" id="lnk22"><path d="M55.48,158.92 C77.96,163.23 109.0971,169.2013 140.3171,175.1813" fill="none" id="Admin-to-UC_Scope" style="stroke:#181818;stroke-width:1;"/><polygon fill="#181818" points="146.21,176.31,138.1232,170.6883,141.2993,175.3694,136.6182,178.5455,146.21,176.31" style="stroke:#181818;stroke-width:1;"/></g><!--link UC_Register to UC_InitPrivate--><g class="link" data-entity-1="ent0006" data-entity-2="ent0011" data-link-type="dependency" data-source-line="29" id="lnk23"><path d="M203.03,325.98 C203.03,311.83 203.03,296.58 203.03,281.4" fill="none" id="UC_Register-to-UC_InitPrivate" style="stroke:#181818;stroke-width:1;stroke-dasharray:7,7;"/><polygon fill="#181818" points="203.03,275.4,199.03,284.4,203.03,280.4,207.03,284.4,203.03,275.4" style="stroke:#181818;stroke-width:1;"/><text fill="#000000" font-family="Noto Sans CJK SC" font-size="13" lengthAdjust="spacing" textLength="63.0068" x="160.03" y="305.3069">&#171;include&#187;</text></g><?plantuml-src TP9DIm917CRlyoa6x_O1GXQYKr0KHUTOrd4Ts7PZTwn31Kdb6caKlPY5b4BefVLGaBYONyQPrM_HhjFehDbb3i_ydl_BCsEW3874WZRMimIciOqqWYqJ05KZbWqJhEgDJfw2knOhVYMWwi1j1zdYCl3gmNM1tZoERvRIkzW4unCcZnHEWgYWQke62l5nbK7dAl3F0j_bRjQgqreb0Gy1X3a7QQep8Tb7YnPAlElopYRIiKF2ad-ueEhJthtWLYqz76Ckv7OboCeHcQAzMtfH_XsnNsVvDdjv6xORmh5XMnbie9YbwB9oOz3n-Jw2t3h0HCkkstfiY6P-qEroaBswmVitBTPeyvAM7eHlnSHamyRxAebraJqyCc48MwoffggZETl6mEWb_YE7NdzKyOQbK_hyEJel1prlieTcxI5m341aXyca4di5MUIHpoXHlh8a0fIrQLJYtt1zkbbCblQ8wNnI88q75vIPIE4YJAMmgHcvD5AK7m00?></g></svg>