<svg xmlns="http://www.w3.org/2000/svg" xmlns:xlink="http://www.w3.org/1999/xlink" contentStyleType="text/css" data-diagram-type="DESCRIPTION" height="460px" preserveAspectRatio="none" style="width:786px;height:460px;background:#FFFFFF;" version="1.1" viewBox="0 0 786 460" width="786px" zoomAndPan="magnify"><?plantuml 1.2026.3beta6?><defs/><g><!--entity Input--><g class="entity" data-qualified-name="Input" data-source-line="14" id="ent0002"><rect fill="#FFF3E1" height="33.9688" rx="2.5" ry="2.5" style="stroke:#7F8C8D;stroke-width:0.5;" width="127.6726" x="326.13" y="7"/><text fill="#000000" font-family="Noto Sans CJK SC" font-size="12" lengthAdjust="spacing" textLength="107.6726" x="336.13" y="28.1387">&#36755;&#20837;&#25991;&#26412; / &#29992;&#25143;&#38382;&#39064;</text></g><!--entity Detect--><g class="entity" data-qualified-name="Detect" data-source-line="15" id="ent0003"><rect fill="#FDEDEC" height="33.9688" rx="2.5" ry="2.5" style="stroke:#7F8C8D;stroke-width:0.5;" width="68.0004" x="355.97" y="54.97"/><text fill="#000000" font-family="Noto Sans CJK SC" font-size="12" lengthAdjust="spacing" textLength="48.0004" x="365.97" y="76.1087">&#25935;&#24863;&#35782;&#21035;</text></g><!--entity Sanitize--><g class="entity" data-qualified-name="Sanitize" data-source-line="16" id="ent0004"><rect fill="#FDEDEC" height="47.9375" rx="2.5" ry="2.5" style="stroke:#7F8C8D;stroke-width:0.5;" width="99.5471" x="340.2" y="102.93"/><text fill="#000000" font-family="Noto Sans CJK SC" font-size="12" lengthAdjust="spacing" textLength="48.0004" x="365.9733" y="124.0687">&#33073;&#25935;&#22788;&#29702;</text><text fill="#000000" font-family="Noto Sans CJK SC" font-size="12" lengthAdjust="spacing" textLength="79.5471" x="350.2" y="138.0374">&#29983;&#25104; safeText</text></g><!--entity Tag--><g class="entity" data-qualified-name="Tag" data-source-line="17" id="ent0005"><rect fill="#FDEDEC" height="61.9063" rx="2.5" ry="2.5" style="stroke:#7F8C8D;stroke-width:0.5;" width="230.2344" x="274.85" y="164.87"/><text fill="#000000" font-family="Noto Sans CJK SC" font-size="12" lengthAdjust="spacing" textLength="60.0005" x="359.967" y="186.0087">&#20803;&#25968;&#25454;&#26631;&#27880;</text><text fill="#000000" font-family="Noto Sans CJK SC" font-size="12" lengthAdjust="spacing" textLength="210.2344" x="284.85" y="199.9774">restricted / externalModelAllowed /</text><text fill="#000000" font-family="Noto Sans CJK SC" font-size="12" lengthAdjust="spacing" textLength="92.9941" x="343.4701" y="213.9462">sensitivityLevel</text></g><!--entity IndexView--><g class="entity" data-qualified-name="IndexView" data-source-line="19" id="ent0006"><rect fill="#E8F4FD" height="47.9375" rx="2.5" ry="2.5" style="stroke:#7F8C8D;stroke-width:0.5;" width="257.9375" x="515" y="171.86"/><text fill="#000000" font-family="Noto Sans CJK SC" font-size="12" lengthAdjust="spacing" textLength="48.0004" x="619.9686" y="192.9987">&#32034;&#24341;&#35270;&#22270;</text><text fill="#000000" font-family="Noto Sans CJK SC" font-size="12" lengthAdjust="spacing" textLength="237.9375" x="525" y="206.9674">safeText + restricted + sensitivityLevel</text></g><!--entity ExternalView--><g class="entity" data-qualified-name="ExternalView" data-source-line="20" id="ent0007"><rect fill="#E8F4FD" height="61.9063" rx="2.5" ry="2.5" style="stroke:#7F8C8D;stroke-width:0.5;" width="236.1465" x="271.9" y="240.78"/><text fill="#000000" font-family="Noto Sans CJK SC" font-size="12" lengthAdjust="spacing" textLength="48.0004" x="365.9731" y="261.9187">&#22806;&#21457;&#35270;&#22270;</text><text fill="#000000" font-family="Noto Sans CJK SC" font-size="12" lengthAdjust="spacing" textLength="216.1465" x="281.9" y="275.8874">safeText + externalModelAllowed +</text><text fill="#000000" font-family="Noto Sans CJK SC" font-size="12" lengthAdjust="spacing" textLength="168.5215" x="305.7125" y="289.8562">restricted + sensitivityLevel</text></g><!--entity LogView--><g class="entity" data-qualified-name="LogView" data-source-line="21" id="ent0008"><rect fill="#E8F4FD" height="47.9375" rx="2.5" ry="2.5" style="stroke:#7F8C8D;stroke-width:0.5;" width="257.9375" x="7" y="171.86"/><text fill="#000000" font-family="Noto Sans CJK SC" font-size="12" lengthAdjust="spacing" textLength="48.0004" x="111.9686" y="192.9987">&#26085;&#24535;&#35270;&#22270;</text><text fill="#000000" font-family="Noto Sans CJK SC" font-size="12" lengthAdjust="spacing" textLength="237.9375" x="17" y="206.9674">safeText + restricted + sensitivityLevel</text></g><!--entity ModelOutput--><g class="entity" data-qualified-name="ModelOutput" data-source-line="23" id="ent0009"><rect fill="#E9F7EF" height="33.9688" rx="2.5" ry="2.5" style="stroke:#7F8C8D;stroke-width:0.5;" width="68.0004" x="355.97" y="316.68"/><text fill="#000000" font-family="Noto Sans CJK SC" font-size="12" lengthAdjust="spacing" textLength="48.0004" x="365.97" y="337.8187">&#27169;&#22411;&#36755;&#20986;</text></g><!--entity Review--><g class="entity" data-qualified-name="Review" data-source-line="24" id="ent0010"><rect fill="#FDEDEC" height="33.9688" rx="2.5" ry="2.5" style="stroke:#7F8C8D;stroke-width:0.5;" width="68.0004" x="355.97" y="364.65"/><text fill="#000000" font-family="Noto Sans CJK SC" font-size="12" lengthAdjust="spacing" textLength="48.0004" x="365.97" y="385.7887">&#36755;&#20986;&#22797;&#26680;</text></g><!--entity Pass--><g class="entity" data-qualified-name="Pass" data-source-line="26" id="ent0011"><rect fill="#E9F7EF" height="33.9688" rx="2.5" ry="2.5" style="stroke:#7F8C8D;stroke-width:0.5;" width="44.0002" x="367.97" y="412.62"/><text fill="#000000" font-family="Noto Sans CJK SC" font-size="12" lengthAdjust="spacing" textLength="24.0002" x="377.97" y="433.7587">&#25918;&#34892;</text></g><!--entity Block--><g class="entity" data-qualified-name="Block" data-source-line="27" id="ent0012"><rect fill="#FADBD8" height="33.9688" rx="2.5" ry="2.5" style="stroke:#7F8C8D;stroke-width:0.5;" width="44.0002" x="301.97" y="364.65"/><text fill="#000000" font-family="Noto Sans CJK SC" font-size="12" lengthAdjust="spacing" textLength="24.0002" x="311.97" y="385.7887">&#25318;&#25130;</text></g><!--entity RedactAgain--><g class="entity" data-qualified-name="RedactAgain" data-source-line="28" id="ent0013"><rect fill="#FCF3CF" height="33.9688" rx="2.5" ry="2.5" style="stroke:#7F8C8D;stroke-width:0.5;" width="68.0004" x="433.97" y="364.65"/><text fill="#000000" font-family="Noto Sans CJK SC" font-size="12" lengthAdjust="spacing" textLength="48.0004" x="443.97" y="385.7887">&#20108;&#27425;&#33073;&#25935;</text></g><!--link Input to Detect--><g class="link" data-entity-1="ent0002" data-entity-2="ent0003" data-link-type="dependency" data-source-line="30" id="lnk14"><path d="M389.97,41.3 C389.97,45.59 389.97,44.2 389.97,48.5" fill="none" id="Input-to-Detect" style="stroke:#666666;stroke-width:1.1;"/><polygon fill="#666666" points="389.97,54.5,393.97,45.5,389.97,49.5,385.97,45.5,389.97,54.5" style="stroke:#666666;stroke-width:1.1;"/></g><!--link Detect to Sanitize--><g class="link" data-entity-1="ent0003" data-entity-2="ent0004" data-link-type="dependency" data-source-line="31" id="lnk15"><path d="M389.97,89.34 C389.97,93.61 389.97,92.27 389.97,96.8" fill="none" id="Detect-to-Sanitize" style="stroke:#666666;stroke-width:1.1;"/><polygon fill="#666666" points="389.97,102.8,393.97,93.8,389.97,97.8,385.97,93.8,389.97,102.8" style="stroke:#666666;stroke-width:1.1;"/></g><!--link Sanitize to Tag--><g class="link" data-entity-1="ent0004" data-entity-2="ent0005" data-link-type="dependency" data-source-line="32" id="lnk16"><path d="M389.97,151.01 C389.97,155.36 389.97,153.95 389.97,158.46" fill="none" id="Sanitize-to-Tag" style="stroke:#666666;stroke-width:1.1;"/><polygon fill="#666666" points="389.97,164.46,393.97,155.46,389.97,159.46,385.97,155.46,389.97,164.46" style="stroke:#666666;stroke-width:1.1;"/></g><!--link Tag to IndexView--><g class="link" data-entity-1="ent0005" data-entity-2="ent0006" data-link-type="dependency" data-source-line="33" id="lnk17"><path d="M505.45,196.59 C508.46,196.59 505.49,196.59 508.51,196.59" fill="none" id="Tag-to-IndexView" style="stroke:#666666;stroke-width:1.1;"/><polygon fill="#666666" points="514.51,196.59,505.51,192.59,509.51,196.59,505.51,200.59,514.51,196.59" style="stroke:#666666;stroke-width:1.1;"/></g><!--link Tag to ExternalView--><g class="link" data-entity-1="ent0005" data-entity-2="ent0007" data-link-type="dependency" data-source-line="34" id="lnk18"><path d="M389.97,227.14 C389.97,231.55 389.97,230.08 389.97,234.49" fill="none" id="Tag-to-ExternalView" style="stroke:#666666;stroke-width:1.1;"/><polygon fill="#666666" points="389.97,240.49,393.97,231.49,389.97,235.49,385.97,231.49,389.97,240.49" style="stroke:#666666;stroke-width:1.1;"/></g><!--reverse link LogView to Tag--><g class="link" data-entity-1="ent0008" data-entity-2="ent0005" data-link-type="dependency" data-source-line="35" id="lnk20"><path d="M271.2,196.59 C274.26,196.59 271.33,196.59 274.38,196.59" fill="none" id="LogView-backto-Tag" style="stroke:#666666;stroke-width:1.1;"/><polygon fill="#666666" points="265.2,196.59,274.2,200.59,270.2,196.59,274.2,192.59,265.2,196.59" style="stroke:#666666;stroke-width:1.1;"/></g><!--link ExternalView to ModelOutput--><g class="link" data-entity-1="ent0007" data-entity-2="ent0009" data-link-type="dependency" data-source-line="36" id="lnk21"><path d="M389.97,303.06 C389.97,307.62 389.97,306.17 389.97,310.32" fill="none" id="ExternalView-to-ModelOutput" style="stroke:#666666;stroke-width:1.1;"/><polygon fill="#666666" points="389.97,316.32,393.97,307.32,389.97,311.32,385.97,307.32,389.97,316.32" style="stroke:#666666;stroke-width:1.1;"/></g><!--link ModelOutput to Review--><g class="link" data-entity-1="ent0009" data-entity-2="ent0010" data-link-type="dependency" data-source-line="37" id="lnk22"><path d="M389.97,350.99 C389.97,355.28 389.97,353.88 389.97,358.18" fill="none" id="ModelOutput-to-Review" style="stroke:#666666;stroke-width:1.1;"/><polygon fill="#666666" points="389.97,364.18,393.97,355.18,389.97,359.18,385.97,355.18,389.97,364.18" style="stroke:#666666;stroke-width:1.1;"/></g><!--link Review to Pass--><g class="link" data-entity-1="ent0010" data-entity-2="ent0011" data-link-type="dependency" data-source-line="38" id="lnk23"><path d="M389.97,398.95 C389.97,403.25 389.97,401.85 389.97,406.15" fill="none" id="Review-to-Pass" style="stroke:#666666;stroke-width:1.1;"/><polygon fill="#666666" points="389.97,412.15,393.97,403.15,389.97,407.15,385.97,403.15,389.97,412.15" style="stroke:#666666;stroke-width:1.1;"/></g><!--reverse link Block to Review--><g class="link" data-entity-1="ent0012" data-entity-2="ent0010" data-link-type="dependency" data-source-line="39" id="lnk25"><path d="M352.31,382.59 C355.31,382.59 352.43,382.59 355.57,382.59" fill="none" id="Block-backto-Review" style="stroke:#666666;stroke-width:1.1;"/><polygon fill="#666666" points="346.31,382.59,355.31,386.59,351.31,382.59,355.31,378.59,346.31,382.59" style="stroke:#666666;stroke-width:1.1;"/></g><!--link Review to RedactAgain--><g class="link" data-entity-1="ent0010" data-entity-2="ent0013" data-link-type="dependency" data-source-line="40" id="lnk26"><path d="M424.41,382.59 C427.51,382.59 424.65,382.59 427.75,382.59" fill="none" id="Review-to-RedactAgain" style="stroke:#666666;stroke-width:1.1;"/><polygon fill="#666666" points="433.75,382.59,424.75,378.59,428.75,382.59,424.75,386.59,433.75,382.59" style="stroke:#666666;stroke-width:1.1;"/></g><?plantuml-src dLDTJnD157tVNp6HHu9Q8L9VJ4ftDo71Q8JunCkuUzbEkimqirCAlWgq2H0myc6YaO-04YMeqKH33FuPTrh-XRFJtSsKB2_sOH_kFVUSUy-S2jP0Wg7dJ0WsZtp2mHE4KSkAweGsCCVpA2GKn5834EEYnen60tjr7C2qM0e19OEO1Y4O01_cS3CKCx0eAY49w3nGWJpr0MwWAfopraoDU7KAKOHAjqlNcrKMCew6xkkVqSmr9nZtWQUmSRTSBTk5CBLmm5cJ-dregqP4mRukesAQl01KkcUoO5gFe85AOqQHCXzqyQvbvJBeLk_oTRno8dVRyjqPkeEwswUoy_Dgx_pgwCqjX2CqIHjDWOPSrnrrIkQWtDcKo_kzBwjnvxD6sY1KLq5jntQg0nhBtnGwFbxkRgtEqkxslknieGZFGMAtdft6b8ZaZeBfUEMbtFagDyxbGLj-Fvsb72B1YIV0Lmih1k0KXu_KUM4b35ahAS_I26YaA1U8M9g21GYrp0mESWLJellZAFwzq_ku6h-zLAFfPcWO6LB3g91oalgm-8n02mqvPNVCjGTMFzwDDryLy1PkFJnmsWrwJZfvawJSEud_xFtNALCi660Te3qzZD-l9M5fNsYmtlnnK-XqE0_SSSUz7glsHNoy8Gz-QVnJMD3S1UxBxSlUuRf6FS7gRrL09zS-oCud3Pa8cLTNF1LxmYwRcByNw_Bii9-rLDB7dgW4c525hxgZLTUo-daUyLcBZZnCCskbqSsgMHgjF9PPHmN8Ia8qmabG4wgGFt-_dCBCH-etGfXBuAd5ri0hPbE6fPPfRzRlMsYbJcRLnBAybifeZ_9YjglXnpy0?></g></svg>