<svg xmlns="http://www.w3.org/2000/svg" xmlns:xlink="http://www.w3.org/1999/xlink" contentStyleType="text/css" data-diagram-type="ACTIVITY" height="798px" preserveAspectRatio="none" style="width:414px;height:798px;background:#FFFFFF;" version="1.1" viewBox="0 0 414 798" width="414px" zoomAndPan="magnify"><?plantuml 1.2026.3beta6?><defs/><g><ellipse cx="217.5714" cy="25" fill="#222222" rx="10" ry="10" style="stroke:#222222;stroke-width:1;"/><rect fill="#F1F1F1" height="47.9375" rx="12.5" ry="12.5" style="stroke:#181818;stroke-width:0.5;" width="172.625" x="131.2589" y="55"/><text fill="#000000" font-family="Noto Sans CJK SC" font-size="12" lengthAdjust="spacing" textLength="140.1272" x="141.2589" y="76.1387">&#20174; SecurityContext &#35835;&#21462;</text><text fill="#000000" font-family="Noto Sans CJK SC" font-size="12" lengthAdjust="spacing" textLength="152.625" x="141.2589" y="90.1074">userId / role / primaryOrg</text><rect fill="#F1F1F1" height="33.9688" rx="12.5" ry="12.5" style="stroke:#181818;stroke-width:0.5;" width="116.0007" x="159.571" y="171.3398"/><text fill="#000000" font-family="Noto Sans CJK SC" font-size="12" lengthAdjust="spacing" textLength="96.0007" x="169.571" y="192.4785">&#36820;&#22238;&#20840;&#37096;&#21487;&#35265;&#33539;&#22260;</text><ellipse cx="217.5714" cy="244.8242" fill="none" rx="11" ry="11" style="stroke:#222222;stroke-width:1;"/><ellipse cx="217.5714" cy="244.8242" fill="#222222" rx="6" ry="6" style="stroke:#222222;stroke-width:1;"/><polygon fill="#F1F1F1" points="177.068,122.9375,258.0747,122.9375,270.0747,134.9375,258.0747,146.9375,177.068,146.9375,165.068,134.9375,177.068,122.9375" style="stroke:#181818;stroke-width:0.5;"/><text fill="#000000" font-family="Noto Sans CJK SC" font-size="11" lengthAdjust="spacing" textLength="10.9999" x="221.5714" y="157.1479">&#26159;</text><text fill="#000000" font-family="Noto Sans CJK SC" font-size="11" lengthAdjust="spacing" textLength="81.0067" x="177.068" y="138.7456">&#35282;&#33394; = ADMIN?</text><rect fill="#F1F1F1" height="33.9688" rx="12.5" ry="12.5" style="stroke:#181818;stroke-width:0.5;" width="237.5944" x="98.7742" y="297.8242"/><text fill="#000000" font-family="Noto Sans CJK SC" font-size="12" lengthAdjust="spacing" textLength="217.5944" x="108.7742" y="318.9629">&#20174; OrgTagCacheService &#35835;&#21462;&#30452;&#25509;&#26631;&#31614;</text><rect fill="#F1F1F1" height="33.9688" rx="12.5" ry="12.5" style="stroke:#181818;stroke-width:0.5;" width="116.0007" x="159.571" y="351.793"/><text fill="#000000" font-family="Noto Sans CJK SC" font-size="12" lengthAdjust="spacing" textLength="96.0007" x="169.571" y="372.9316">&#36882;&#24402;&#23637;&#24320;&#29238;&#32423;&#32452;&#32455;</text><rect fill="#F1F1F1" height="33.9688" rx="12.5" ry="12.5" style="stroke:#181818;stroke-width:0.5;" width="145.8713" x="144.6357" y="405.7617"/><text fill="#000000" font-family="Noto Sans CJK SC" font-size="12" lengthAdjust="spacing" textLength="125.8713" x="154.6357" y="426.9004">&#24471;&#21040; EffectiveTags(u)</text><polygon fill="#F1F1F1" points="165.1525,459.7305,269.9902,459.7305,281.9902,471.7305,269.9902,483.7305,165.1525,483.7305,153.1525,471.7305,165.1525,459.7305" style="stroke:#181818;stroke-width:0.5;"/><text fill="#000000" font-family="Noto Sans CJK SC" font-size="11" lengthAdjust="spacing" textLength="104.8377" x="165.1525" y="475.5386">&#35775;&#38382;&#25991;&#20214;&#25110;&#25991;&#20214;&#21015;&#34920;?</text><text fill="#000000" font-family="Noto Sans CJK SC" font-size="11" lengthAdjust="spacing" textLength="10.9999" x="142.1526" y="469.1362">&#26159;</text><text fill="#000000" font-family="Noto Sans CJK SC" font-size="11" lengthAdjust="spacing" textLength="43.9997" x="281.9902" y="469.1362">&#26816;&#32034;&#35831;&#27714;</text><rect fill="#F1F1F1" height="75.875" rx="12.5" ry="12.5" style="stroke:#181818;stroke-width:0.5;" width="203.791" x="16" y="493.7305"/><text fill="#000000" font-family="Noto Sans CJK SC" font-size="12" lengthAdjust="spacing" textLength="107.9063" x="26" y="514.8691">&#25353; owner = userId</text><text fill="#000000" font-family="Noto Sans CJK SC" font-size="12" lengthAdjust="spacing" textLength="115.5996" x="26" y="528.8379">OR is_public = true</text><text fill="#000000" font-family="Noto Sans CJK SC" font-size="12" lengthAdjust="spacing" textLength="183.791" x="26" y="542.8066">OR org_tag in EffectiveTags(u)</text><text fill="#000000" font-family="Noto Sans CJK SC" font-size="12" lengthAdjust="spacing" textLength="72.0005" x="26" y="556.7754">&#26500;&#36896;&#36807;&#28388;&#26465;&#20214;</text><rect fill="#F1F1F1" height="33.9688" rx="12.5" ry="12.5" style="stroke:#181818;stroke-width:0.5;" width="184.1862" x="25.8024" y="604.6055"/><text fill="#000000" font-family="Noto Sans CJK SC" font-size="12" lengthAdjust="spacing" textLength="164.1862" x="35.8024" y="625.7441">&#36820;&#22238; allow / deny &#25110;&#21015;&#34920;&#32422;&#26463;</text><rect fill="#F1F1F1" height="33.9688" rx="12.5" ry="12.5" style="stroke:#181818;stroke-width:0.5;" width="137.7033" x="248.3956" y="493.7305"/><text fill="#000000" font-family="Noto Sans CJK SC" font-size="12" lengthAdjust="spacing" textLength="117.7033" x="258.3956" y="514.8691">&#26500;&#36896; metadata filter</text><rect fill="#F1F1F1" height="33.9688" rx="12.5" ry="12.5" style="stroke:#181818;stroke-width:0.5;" width="154.9125" x="239.791" y="562.6992"/><text fill="#000000" font-family="Noto Sans CJK SC" font-size="12" lengthAdjust="spacing" textLength="134.9125" x="249.791" y="583.8379">&#27880;&#20837; Elasticsearch &#26597;&#35810;</text><polygon fill="#F1F1F1" points="217.5714,644.5742,229.5714,656.5742,217.5714,668.5742,205.5714,656.5742,217.5714,644.5742" style="stroke:#181818;stroke-width:0.5;"/><ellipse cx="217.5714" cy="699.5742" fill="none" rx="11" ry="11" style="stroke:#222222;stroke-width:1;"/><ellipse cx="217.5714" cy="699.5742" fill="#222222" rx="6" ry="6" style="stroke:#222222;stroke-width:1;"/><line style="stroke:#181818;stroke-width:1;" x1="217.5714" x2="217.5714" y1="35" y2="55"/><polygon fill="#181818" points="213.5714,45,217.5714,55,221.5714,45,217.5714,49" style="stroke:#181818;stroke-width:1;"/><line style="stroke:#181818;stroke-width:1;" x1="217.5714" x2="217.5714" y1="205.3086" y2="233.8242"/><polygon fill="#181818" points="213.5714,223.8242,217.5714,233.8242,221.5714,223.8242,217.5714,227.8242" style="stroke:#181818;stroke-width:1;"/><line style="stroke:#181818;stroke-width:1;" x1="217.5714" x2="217.5714" y1="146.9375" y2="171.3398"/><polygon fill="#181818" points="213.5714,161.3398,217.5714,171.3398,221.5714,161.3398,217.5714,165.3398" style="stroke:#181818;stroke-width:1;"/><line style="stroke:#181818;stroke-width:1;" x1="270.0747" x2="285.5717" y1="134.9375" y2="134.9375"/><polygon fill="#181818" points="281.5717,203.8242,285.5717,213.8242,289.5717,203.8242,285.5717,207.8242" style="stroke:#181818;stroke-width:1;"/><line style="stroke:#181818;stroke-width:1;" x1="285.5717" x2="285.5717" y1="134.9375" y2="277.8242"/><line style="stroke:#181818;stroke-width:1;" x1="285.5717" x2="217.5714" y1="277.8242" y2="277.8242"/><line style="stroke:#181818;stroke-width:1;" x1="217.5714" x2="217.5714" y1="277.8242" y2="297.8242"/><polygon fill="#181818" points="213.5714,287.8242,217.5714,297.8242,221.5714,287.8242,217.5714,291.8242" style="stroke:#181818;stroke-width:1;"/><line style="stroke:#181818;stroke-width:1;" x1="217.5714" x2="217.5714" y1="102.9375" y2="122.9375"/><polygon fill="#181818" points="213.5714,112.9375,217.5714,122.9375,221.5714,112.9375,217.5714,116.9375" style="stroke:#181818;stroke-width:1;"/><line style="stroke:#181818;stroke-width:1;" x1="217.5714" x2="217.5714" y1="331.793" y2="351.793"/><polygon fill="#181818" points="213.5714,341.793,217.5714,351.793,221.5714,341.793,217.5714,345.793" style="stroke:#181818;stroke-width:1;"/><line style="stroke:#181818;stroke-width:1;" x1="217.5714" x2="217.5714" y1="385.7617" y2="405.7617"/><polygon fill="#181818" points="213.5714,395.7617,217.5714,405.7617,221.5714,395.7617,217.5714,399.7617" style="stroke:#181818;stroke-width:1;"/><line style="stroke:#181818;stroke-width:1;" x1="117.8955" x2="117.8955" y1="569.6055" y2="604.6055"/><polygon fill="#181818" points="113.8955,594.6055,117.8955,604.6055,121.8955,594.6055,117.8955,598.6055" style="stroke:#181818;stroke-width:1;"/><line style="stroke:#181818;stroke-width:1;" x1="317.2473" x2="317.2473" y1="527.6992" y2="562.6992"/><polygon fill="#181818" points="313.2473,552.6992,317.2473,562.6992,321.2473,552.6992,317.2473,556.6992" style="stroke:#181818;stroke-width:1;"/><line style="stroke:#181818;stroke-width:1;" x1="153.1525" x2="117.8955" y1="471.7305" y2="471.7305"/><line style="stroke:#181818;stroke-width:1;" x1="117.8955" x2="117.8955" y1="471.7305" y2="493.7305"/><polygon fill="#181818" points="113.8955,483.7305,117.8955,493.7305,121.8955,483.7305,117.8955,487.7305" style="stroke:#181818;stroke-width:1;"/><line style="stroke:#181818;stroke-width:1;" x1="281.9902" x2="317.2473" y1="471.7305" y2="471.7305"/><line style="stroke:#181818;stroke-width:1;" x1="317.2473" x2="317.2473" y1="471.7305" y2="493.7305"/><polygon fill="#181818" points="313.2473,483.7305,317.2473,493.7305,321.2473,483.7305,317.2473,487.7305" style="stroke:#181818;stroke-width:1;"/><line style="stroke:#181818;stroke-width:1;" x1="117.8955" x2="117.8955" y1="638.5742" y2="656.5742"/><line style="stroke:#181818;stroke-width:1;" x1="117.8955" x2="205.5714" y1="656.5742" y2="656.5742"/><polygon fill="#181818" points="195.5714,652.5742,205.5714,656.5742,195.5714,660.5742,199.5714,656.5742" style="stroke:#181818;stroke-width:1;"/><line style="stroke:#181818;stroke-width:1;" x1="317.2473" x2="317.2473" y1="596.668" y2="656.5742"/><line style="stroke:#181818;stroke-width:1;" x1="317.2473" x2="229.5714" y1="656.5742" y2="656.5742"/><polygon fill="#181818" points="239.5714,652.5742,229.5714,656.5742,239.5714,660.5742,235.5714,656.5742" style="stroke:#181818;stroke-width:1;"/><line style="stroke:#181818;stroke-width:1;" x1="217.5714" x2="217.5714" y1="439.7305" y2="459.7305"/><polygon fill="#181818" points="213.5714,449.7305,217.5714,459.7305,221.5714,449.7305,217.5714,453.7305" style="stroke:#181818;stroke-width:1;"/><line style="stroke:#181818;stroke-width:1;" x1="217.5714" x2="217.5714" y1="668.5742" y2="688.5742"/><polygon fill="#181818" points="213.5714,678.5742,217.5714,688.5742,221.5714,678.5742,217.5714,682.5742" style="stroke:#181818;stroke-width:1;"/><g class="legend" data-source-line="23"><rect fill="#DDDDDD" height="42.5938" rx="7.5" ry="7.5" style="stroke:#000000;stroke-width:1;" width="268.849" x="71.9272" y="731.5742"/><text fill="#000000" font-family="Noto Sans CJK SC" font-size="14" lengthAdjust="spacing" textLength="237.999" x="76.9272" y="749.5693">&#32452;&#32455;&#32487;&#25215;&#30340;&#36882;&#24402;&#23637;&#24320;&#24212;&#25910;&#25947;&#22312;&#32531;&#23384;&#23618;&#65292;</text><text fill="#000000" font-family="Noto Sans CJK SC" font-size="14" lengthAdjust="spacing" textLength="258.849" x="76.9272" y="765.8662">&#19994;&#21153;&#26597;&#35810;&#38454;&#27573;&#21482;&#28040;&#36153; EffectiveTags(u)&#12290;</text></g><?plantuml-src PP1DRn916CVlyocU8voyip76r1vwq2QjHv9ckWomoR9BPeTMRaXf04DAWXH8wHjL2Z4fY28gY-N3oBnmyYiuiZQQS9gPvqd-_z_yF8OfGv65VmAxnCnGYsKtN8UHLmpKqEVLHjJ9U8HknU0HKDSc-aXJAuLfTfic38IiE8HKhwRAd-0nF7tsVEl5ap2m974W95h3C0A8g7cTjo_vSNzvrEVLeUgzLfKZtXuRUkanDus84xFYA83GgIznOWERIR9Bw85bahySiZqM9rrnNPHtzmQAB7Cr_gF6HwTybfEbYPpsf5-GVb6l-7sJbpx2PZnEJ6OT49tdXJBX1zZ1VDaSY4PnuKz4gH5SUAcfElqrSb4fWtle4Ah_5bY8EjixO7bxwSo-RPbwp6Y6h8OkJUmnd03BMMkEEkAoiCnTgtbH-E_5HKSt6l_C0BPjzr2BZH4d2vefe97JMt5nPI1YUqGZlSl9yOqQVXMZVC2sYeGKOJY66OQuPJD2Lx7YSvyVTs7JnXwpJ8zWQYP1N7NLyCPuaBqIZsoIq6_OTnbpKoWmAFsUAC_bMU5_nNnQ5_M9E6tpyxwSlULtBJxA_vfLqEBR6N_J2SANhOaOVE7L3s9IKkFlQnv-vl9_weFItm00?></g></svg>