<svg xmlns="http://www.w3.org/2000/svg" xmlns:xlink="http://www.w3.org/1999/xlink" contentStyleType="text/css" data-diagram-type="ACTIVITY" height="898px" preserveAspectRatio="none" style="width:802px;height:898px;background:#FFFFFF;" version="1.1" viewBox="0 0 802 898" width="802px" zoomAndPan="magnify"><?plantuml 1.2026.3beta6?><defs/><g><ellipse cx="320.1649" cy="25" fill="#222222" rx="10" ry="10" style="stroke:#222222;stroke-width:1;"/><rect fill="#F1F1F1" height="33.9688" rx="12.5" ry="12.5" style="stroke:#181818;stroke-width:0.5;" width="92.0005" x="274.1647" y="55"/><text fill="#000000" font-family="Noto Sans CJK SC" font-size="12" lengthAdjust="spacing" textLength="72.0005" x="284.1647" y="76.1387">&#25509;&#25910;&#29992;&#25143;&#36755;&#20837;</text><rect fill="#F1F1F1" height="33.9688" rx="12.5" ry="12.5" style="stroke:#181818;stroke-width:0.5;" width="80.0005" x="280.1647" y="108.9688"/><text fill="#000000" font-family="Noto Sans CJK SC" font-size="12" lengthAdjust="spacing" textLength="60.0005" x="290.1647" y="130.1074">&#36718;&#27425;&#20998;&#26512;&#22120;</text><polygon fill="#F1F1F1" points="285.0004,162.9375,355.3295,162.9375,367.3295,174.9375,355.3295,186.9375,285.0004,186.9375,273.0004,174.9375,285.0004,162.9375" style="stroke:#181818;stroke-width:0.5;"/><text fill="#000000" font-family="Noto Sans CJK SC" font-size="11" lengthAdjust="spacing" textLength="70.3291" x="285.0004" y="178.7456">NEW_TOPIC?</text><text fill="#000000" font-family="Noto Sans CJK SC" font-size="11" lengthAdjust="spacing" textLength="10.9999" x="262.0005" y="172.3433">&#26159;</text><text fill="#000000" font-family="Noto Sans CJK SC" font-size="11" lengthAdjust="spacing" textLength="30.6851" x="367.3295" y="172.3433">META</text><rect fill="#F1F1F1" height="33.9688" rx="12.5" ry="12.5" style="stroke:#181818;stroke-width:0.5;" width="92.0005" x="85.082" y="196.9375"/><text fill="#000000" font-family="Noto Sans CJK SC" font-size="12" lengthAdjust="spacing" textLength="72.0005" x="95.082" y="218.0762">&#37325;&#32622;&#24037;&#20316;&#35760;&#24518;</text><rect fill="#F1F1F1" height="33.9688" rx="12.5" ry="12.5" style="stroke:#181818;stroke-width:0.5;" width="92.0005" x="85.082" y="265.9063"/><text fill="#000000" font-family="Noto Sans CJK SC" font-size="12" lengthAdjust="spacing" textLength="72.0005" x="95.082" y="287.0449">&#20801;&#35768;&#20840;&#23616;&#26816;&#32034;</text><rect fill="#F1F1F1" height="33.9688" rx="12.5" ry="12.5" style="stroke:#181818;stroke-width:0.5;" width="230.1645" x="16" y="334.875"/><text fill="#000000" font-family="Noto Sans CJK SC" font-size="12" lengthAdjust="spacing" textLength="210.1645" x="26" y="356.0137">&#21382;&#21490;&#31574;&#30053; = SELECTIVE &#25110; DISABLED</text><polygon fill="#F1F1F1" points="486.674,196.9375,559.4738,196.9375,571.4738,208.9375,559.4738,220.9375,486.674,220.9375,474.674,208.9375,486.674,196.9375" style="stroke:#181818;stroke-width:0.5;"/><text fill="#000000" font-family="Noto Sans CJK SC" font-size="11" lengthAdjust="spacing" textLength="72.7998" x="486.674" y="212.7456">FOLLOW_UP?</text><text fill="#000000" font-family="Noto Sans CJK SC" font-size="11" lengthAdjust="spacing" textLength="10.9999" x="463.674" y="206.3433">&#26159;</text><text fill="#000000" font-family="Noto Sans CJK SC" font-size="11" lengthAdjust="spacing" textLength="10.9999" x="571.4738" y="206.3433">&#21542;</text><rect fill="#F1F1F1" height="33.9688" rx="12.5" ry="12.5" style="stroke:#181818;stroke-width:0.5;" width="211.345" x="282.875" y="230.9375"/><text fill="#000000" font-family="Noto Sans CJK SC" font-size="12" lengthAdjust="spacing" textLength="191.345" x="292.875" y="252.0762">&#27839;&#29992;&#24403;&#21069;&#20027;&#39064; / &#24403;&#21069;&#20027;&#35821; / &#27963;&#36291;&#25991;&#26723;</text><rect fill="#F1F1F1" height="33.9688" rx="12.5" ry="12.5" style="stroke:#181818;stroke-width:0.5;" width="92.0005" x="342.5472" y="299.9063"/><text fill="#000000" font-family="Noto Sans CJK SC" font-size="12" lengthAdjust="spacing" textLength="72.0005" x="352.5472" y="321.0449">&#25910;&#32553;&#26816;&#32034;&#33539;&#22260;</text><rect fill="#F1F1F1" height="33.9688" rx="12.5" ry="12.5" style="stroke:#181818;stroke-width:0.5;" width="252.4184" x="262.3383" y="368.875"/><text fill="#000000" font-family="Noto Sans CJK SC" font-size="12" lengthAdjust="spacing" textLength="232.4184" x="272.3383" y="390.0137">&#21382;&#21490;&#31574;&#30053; = SELECTIVE &#25110; RAW_RECENT</text><polygon fill="#F1F1F1" points="612.757,230.9375,702.4435,230.9375,714.4435,242.9375,702.4435,254.9375,612.757,254.9375,600.757,242.9375,612.757,230.9375" style="stroke:#181818;stroke-width:0.5;"/><text fill="#000000" font-family="Noto Sans CJK SC" font-size="11" lengthAdjust="spacing" textLength="89.6865" x="612.757" y="246.7456">CLARIFICATION?</text><text fill="#000000" font-family="Noto Sans CJK SC" font-size="11" lengthAdjust="spacing" textLength="10.9999" x="589.757" y="240.3433">&#26159;</text><text fill="#000000" font-family="Noto Sans CJK SC" font-size="11" lengthAdjust="spacing" textLength="30.6851" x="714.4435" y="240.3433">META</text><rect fill="#F1F1F1" height="33.9688" rx="12.5" ry="12.5" style="stroke:#181818;stroke-width:0.5;" width="68.0004" x="556.7568" y="264.9375"/><text fill="#000000" font-family="Noto Sans CJK SC" font-size="12" lengthAdjust="spacing" textLength="48.0004" x="566.7568" y="286.0762">&#26242;&#20572;&#26816;&#32034;</text><rect fill="#F1F1F1" height="33.9688" rx="12.5" ry="12.5" style="stroke:#181818;stroke-width:0.5;" width="92.0005" x="544.7567" y="333.9063"/><text fill="#000000" font-family="Noto Sans CJK SC" font-size="12" lengthAdjust="spacing" textLength="72.0005" x="554.7567" y="355.0449">&#36820;&#22238;&#28548;&#28165;&#35831;&#27714;</text><ellipse cx="590.757" cy="413.875" fill="none" rx="11" ry="11" style="stroke:#222222;stroke-width:1;"/><ellipse cx="590.757" cy="413.875" fill="#222222" rx="6" ry="6" style="stroke:#222222;stroke-width:1;"/><rect fill="#F1F1F1" height="33.9688" rx="12.5" ry="12.5" style="stroke:#181818;stroke-width:0.5;" width="116.0007" x="666.4431" y="264.9375"/><text fill="#000000" font-family="Noto Sans CJK SC" font-size="12" lengthAdjust="spacing" textLength="96.0007" x="676.4431" y="286.0762">&#19981;&#35302;&#21457;&#30693;&#35782;&#24211;&#26816;&#32034;</text><rect fill="#F1F1F1" height="33.9688" rx="12.5" ry="12.5" style="stroke:#181818;stroke-width:0.5;" width="116.0007" x="666.4431" y="333.9063"/><text fill="#000000" font-family="Noto Sans CJK SC" font-size="12" lengthAdjust="spacing" textLength="96.0007" x="676.4431" y="355.0449">&#36827;&#20837;&#20250;&#35805;&#25511;&#21046;&#20998;&#25903;</text><rect fill="#F1F1F1" height="33.9688" rx="12.5" ry="12.5" style="stroke:#181818;stroke-width:0.5;" width="80.0005" x="684.4433" y="402.875"/><text fill="#000000" font-family="Noto Sans CJK SC" font-size="12" lengthAdjust="spacing" textLength="60.0005" x="694.4433" y="424.0137">&#29983;&#25104;&#20803;&#22238;&#31572;</text><rect fill="#F1F1F1" height="33.9688" rx="12.5" ry="12.5" style="stroke:#181818;stroke-width:0.5;" width="68.0004" x="690.4433" y="456.8438"/><text fill="#000000" font-family="Noto Sans CJK SC" font-size="12" lengthAdjust="spacing" textLength="48.0004" x="700.4433" y="477.9824">&#22238;&#20889;&#21382;&#21490;</text><ellipse cx="724.4435" cy="521.8125" fill="none" rx="11" ry="11" style="stroke:#222222;stroke-width:1;"/><ellipse cx="724.4435" cy="521.8125" fill="#222222" rx="6" ry="6" style="stroke:#222222;stroke-width:1;"/><polygon fill="#F1F1F1" points="320.1649,542.8125,332.1649,554.8125,320.1649,566.8125,308.1649,554.8125,320.1649,542.8125" style="stroke:#181818;stroke-width:0.5;"/><rect fill="#F1F1F1" height="33.9688" rx="12.5" ry="12.5" style="stroke:#181818;stroke-width:0.5;" width="68.0004" x="286.1647" y="586.8125"/><text fill="#000000" font-family="Noto Sans CJK SC" font-size="12" lengthAdjust="spacing" textLength="48.0004" x="296.1647" y="607.9512">&#25480;&#26435;&#26816;&#32034;</text><rect fill="#F1F1F1" height="33.9688" rx="12.5" ry="12.5" style="stroke:#181818;stroke-width:0.5;" width="91.3381" x="274.4959" y="640.7813"/><text fill="#000000" font-family="Noto Sans CJK SC" font-size="12" lengthAdjust="spacing" textLength="71.3381" x="284.4959" y="661.9199">Prompt &#35013;&#37197;</text><rect fill="#F1F1F1" height="33.9688" rx="12.5" ry="12.5" style="stroke:#181818;stroke-width:0.5;" width="68.0004" x="286.1647" y="694.75"/><text fill="#000000" font-family="Noto Sans CJK SC" font-size="12" lengthAdjust="spacing" textLength="48.0004" x="296.1647" y="715.8887">&#27969;&#24335;&#29983;&#25104;</text><rect fill="#F1F1F1" height="33.9688" rx="12.5" ry="12.5" style="stroke:#181818;stroke-width:0.5;" width="128.0008" x="256.1645" y="748.7188"/><text fill="#000000" font-family="Noto Sans CJK SC" font-size="12" lengthAdjust="spacing" textLength="108.0008" x="266.1645" y="769.8574">&#26469;&#28304;&#32534;&#21495;&#19982;&#32467;&#26524;&#22238;&#20889;</text><rect fill="#F1F1F1" height="33.9688" rx="12.5" ry="12.5" style="stroke:#181818;stroke-width:0.5;" width="92.0005" x="274.1647" y="802.6875"/><text fill="#000000" font-family="Noto Sans CJK SC" font-size="12" lengthAdjust="spacing" textLength="72.0005" x="284.1647" y="823.8262">&#26356;&#26032;&#24037;&#20316;&#35760;&#24518;</text><ellipse cx="320.1649" cy="867.6563" fill="none" rx="11" ry="11" style="stroke:#222222;stroke-width:1;"/><ellipse cx="320.1649" cy="867.6563" fill="#222222" rx="6" ry="6" style="stroke:#222222;stroke-width:1;"/><line style="stroke:#181818;stroke-width:1;" x1="320.1649" x2="320.1649" y1="35" y2="55"/><polygon fill="#181818" points="316.1649,45,320.1649,55,324.1649,45,320.1649,49" style="stroke:#181818;stroke-width:1;"/><line style="stroke:#181818;stroke-width:1;" x1="320.1649" x2="320.1649" y1="88.9688" y2="108.9688"/><polygon fill="#181818" points="316.1649,98.9688,320.1649,108.9688,324.1649,98.9688,320.1649,102.9688" style="stroke:#181818;stroke-width:1;"/><line style="stroke:#181818;stroke-width:1;" x1="131.0823" x2="131.0823" y1="230.9063" y2="265.9063"/><polygon fill="#181818" points="127.0823,255.9063,131.0823,265.9063,135.0823,255.9063,131.0823,259.9063" style="stroke:#181818;stroke-width:1;"/><line style="stroke:#181818;stroke-width:1;" x1="131.0823" x2="131.0823" y1="299.875" y2="334.875"/><polygon fill="#181818" points="127.0823,324.875,131.0823,334.875,135.0823,324.875,131.0823,328.875" style="stroke:#181818;stroke-width:1;"/><line style="stroke:#181818;stroke-width:1;" x1="388.5475" x2="388.5475" y1="264.9063" y2="299.9063"/><polygon fill="#181818" points="384.5475,289.9063,388.5475,299.9063,392.5475,289.9063,388.5475,293.9063" style="stroke:#181818;stroke-width:1;"/><line style="stroke:#181818;stroke-width:1;" x1="388.5475" x2="388.5475" y1="333.875" y2="368.875"/><polygon fill="#181818" points="384.5475,358.875,388.5475,368.875,392.5475,358.875,388.5475,362.875" style="stroke:#181818;stroke-width:1;"/><line style="stroke:#181818;stroke-width:1;" x1="590.757" x2="590.757" y1="298.9063" y2="333.9063"/><polygon fill="#181818" points="586.757,323.9063,590.757,333.9063,594.757,323.9063,590.757,327.9063" style="stroke:#181818;stroke-width:1;"/><line style="stroke:#181818;stroke-width:1;" x1="590.757" x2="590.757" y1="367.875" y2="402.875"/><polygon fill="#181818" points="586.757,392.875,590.757,402.875,594.757,392.875,590.757,396.875" style="stroke:#181818;stroke-width:1;"/><line style="stroke:#181818;stroke-width:1;" x1="724.4435" x2="724.4435" y1="298.9063" y2="333.9063"/><polygon fill="#181818" points="720.4435,323.9063,724.4435,333.9063,728.4435,323.9063,724.4435,327.9063" style="stroke:#181818;stroke-width:1;"/><line style="stroke:#181818;stroke-width:1;" x1="724.4435" x2="724.4435" y1="367.875" y2="402.875"/><polygon fill="#181818" points="720.4435,392.875,724.4435,402.875,728.4435,392.875,724.4435,396.875" style="stroke:#181818;stroke-width:1;"/><line style="stroke:#181818;stroke-width:1;" x1="724.4435" x2="724.4435" y1="436.8438" y2="456.8438"/><polygon fill="#181818" points="720.4435,446.8438,724.4435,456.8438,728.4435,446.8438,724.4435,450.8438" style="stroke:#181818;stroke-width:1;"/><line style="stroke:#181818;stroke-width:1;" x1="724.4435" x2="724.4435" y1="490.8125" y2="510.8125"/><polygon fill="#181818" points="720.4435,500.8125,724.4435,510.8125,728.4435,500.8125,724.4435,504.8125" style="stroke:#181818;stroke-width:1;"/><line style="stroke:#181818;stroke-width:1;" x1="600.757" x2="590.757" y1="242.9375" y2="242.9375"/><line style="stroke:#181818;stroke-width:1;" x1="590.757" x2="590.757" y1="242.9375" y2="264.9375"/><polygon fill="#181818" points="586.757,254.9375,590.757,264.9375,594.757,254.9375,590.757,258.9375" style="stroke:#181818;stroke-width:1;"/><line style="stroke:#181818;stroke-width:1;" x1="714.4435" x2="724.4435" y1="242.9375" y2="242.9375"/><line style="stroke:#181818;stroke-width:1;" x1="724.4435" x2="724.4435" y1="242.9375" y2="264.9375"/><polygon fill="#181818" points="720.4435,254.9375,724.4435,264.9375,728.4435,254.9375,724.4435,258.9375" style="stroke:#181818;stroke-width:1;"/><line style="stroke:#181818;stroke-width:1;" x1="474.674" x2="388.5475" y1="208.9375" y2="208.9375"/><line style="stroke:#181818;stroke-width:1;" x1="388.5475" x2="388.5475" y1="208.9375" y2="230.9375"/><polygon fill="#181818" points="384.5475,220.9375,388.5475,230.9375,392.5475,220.9375,388.5475,224.9375" style="stroke:#181818;stroke-width:1;"/><line style="stroke:#181818;stroke-width:1;" x1="571.4738" x2="657.6002" y1="208.9375" y2="208.9375"/><line style="stroke:#181818;stroke-width:1;" x1="657.6002" x2="657.6002" y1="208.9375" y2="230.9375"/><polygon fill="#181818" points="653.6002,220.9375,657.6002,230.9375,661.6002,220.9375,657.6002,224.9375" style="stroke:#181818;stroke-width:1;"/><line style="stroke:#181818;stroke-width:1;" x1="388.5475" x2="388.5475" y1="402.8438" y2="554.8125"/><line style="stroke:#181818;stroke-width:1;" x1="388.5475" x2="332.1649" y1="554.8125" y2="554.8125"/><polygon fill="#181818" points="342.1649,550.8125,332.1649,554.8125,342.1649,558.8125,338.1649,554.8125" style="stroke:#181818;stroke-width:1;"/><line style="stroke:#181818;stroke-width:1;" x1="273.0004" x2="131.0823" y1="174.9375" y2="174.9375"/><line style="stroke:#181818;stroke-width:1;" x1="131.0823" x2="131.0823" y1="174.9375" y2="196.9375"/><polygon fill="#181818" points="127.0823,186.9375,131.0823,196.9375,135.0823,186.9375,131.0823,190.9375" style="stroke:#181818;stroke-width:1;"/><line style="stroke:#181818;stroke-width:1;" x1="367.3295" x2="523.0739" y1="174.9375" y2="174.9375"/><line style="stroke:#181818;stroke-width:1;" x1="523.0739" x2="523.0739" y1="174.9375" y2="196.9375"/><polygon fill="#181818" points="519.0739,186.9375,523.0739,196.9375,527.0739,186.9375,523.0739,190.9375" style="stroke:#181818;stroke-width:1;"/><line style="stroke:#181818;stroke-width:1;" x1="131.0823" x2="131.0823" y1="368.8438" y2="554.8125"/><line style="stroke:#181818;stroke-width:1;" x1="131.0823" x2="308.1649" y1="554.8125" y2="554.8125"/><polygon fill="#181818" points="298.1649,550.8125,308.1649,554.8125,298.1649,558.8125,302.1649,554.8125" style="stroke:#181818;stroke-width:1;"/><line style="stroke:#181818;stroke-width:1;" x1="320.1649" x2="320.1649" y1="142.9375" y2="162.9375"/><polygon fill="#181818" points="316.1649,152.9375,320.1649,162.9375,324.1649,152.9375,320.1649,156.9375" style="stroke:#181818;stroke-width:1;"/><line style="stroke:#181818;stroke-width:1;" x1="320.1649" x2="320.1649" y1="566.8125" y2="586.8125"/><polygon fill="#181818" points="316.1649,576.8125,320.1649,586.8125,324.1649,576.8125,320.1649,580.8125" style="stroke:#181818;stroke-width:1;"/><line style="stroke:#181818;stroke-width:1;" x1="320.1649" x2="320.1649" y1="620.7813" y2="640.7813"/><polygon fill="#181818" points="316.1649,630.7813,320.1649,640.7813,324.1649,630.7813,320.1649,634.7813" style="stroke:#181818;stroke-width:1;"/><line style="stroke:#181818;stroke-width:1;" x1="320.1649" x2="320.1649" y1="674.75" y2="694.75"/><polygon fill="#181818" points="316.1649,684.75,320.1649,694.75,324.1649,684.75,320.1649,688.75" style="stroke:#181818;stroke-width:1;"/><line style="stroke:#181818;stroke-width:1;" x1="320.1649" x2="320.1649" y1="728.7188" y2="748.7188"/><polygon fill="#181818" points="316.1649,738.7188,320.1649,748.7188,324.1649,738.7188,320.1649,742.7188" style="stroke:#181818;stroke-width:1;"/><line style="stroke:#181818;stroke-width:1;" x1="320.1649" x2="320.1649" y1="782.6875" y2="802.6875"/><polygon fill="#181818" points="316.1649,792.6875,320.1649,802.6875,324.1649,792.6875,320.1649,796.6875" style="stroke:#181818;stroke-width:1;"/><line style="stroke:#181818;stroke-width:1;" x1="320.1649" x2="320.1649" y1="836.6563" y2="856.6563"/><polygon fill="#181818" points="316.1649,846.6563,320.1649,856.6563,324.1649,846.6563,320.1649,850.6563" style="stroke:#181818;stroke-width:1;"/><?plantuml-src VPBDJjj04CVlVeezXbFliQhADKQoP98ekCqngjIW8hM0Y1-0aDguKlDHnRM0V228345gOa0fjaX2NiOpthn5lJ59HIFrihl_cTtz_sPsYzg70urBOjL1wo6qUcXwzAa1kiDpIJePuAyBC0tirE6qntFSpZP9fAHSNardPF7D6j4-5NP90a_SDOwGvEou4au6u3d1f4K7jp0rU1O6lKG7FkWzk3l4xc4ul8p3LGDgzs7V3dywv3NPaXH9LENt4a7J9klobl1MaTPvhl2vM229JKaLc0S3s4WhIZgNVvVv5o2w5E-dKH4mQS2tIk2FPfSdv1LPIkhs8ud34VNAQ1_ZHPT_FXRLFhw9uUZtCZI7pud_GcQ5N3uhYL9APRjZKAXVnIYCL5I4hBmXYu8gfrEhjCpux0XAhRzTcGVfr89c1v--egzJryExeqMggEtjpvSlkp8_5VWLUdq5jH_XkKDT0nuRAzSsetSDncVKRMFr6im7zhIMkzmGMkTera6Fwk-4VMiPZoGOft4hLabsF-viSuiv7jb_Ch5TNW0aCmTxN_OrGhlwJAz46d-NO5oB_PXiE_XO3ySsrBp0huQZ1dPQiIlBDeTetxxyLip-3m00?></g></svg>