<svg xmlns="http://www.w3.org/2000/svg" xmlns:xlink="http://www.w3.org/1999/xlink" contentStyleType="text/css" data-diagram-type="ACTIVITY" height="761px" preserveAspectRatio="none" style="width:961px;height:761px;background:#FFFFFF;" version="1.1" viewBox="0 0 961 761" width="961px" zoomAndPan="magnify"><?plantuml 1.2026.3beta6?><defs/><g><ellipse cx="348.7105" cy="25" fill="#222222" rx="10" ry="10" style="stroke:#222222;stroke-width:1;"/><rect fill="#F1F1F1" height="33.9688" rx="12.5" ry="12.5" style="stroke:#181818;stroke-width:0.5;" width="68.0004" x="314.7103" y="55"/><text fill="#000000" font-family="Noto Sans CJK SC" font-size="12" lengthAdjust="spacing" textLength="48.0004" x="324.7103" y="76.1387">&#25509;&#25910;&#35831;&#27714;</text><rect fill="#F1F1F1" height="33.9688" rx="12.5" ry="12.5" style="stroke:#181818;stroke-width:0.5;" width="92.0005" x="302.7102" y="108.9688"/><text fill="#000000" font-family="Noto Sans CJK SC" font-size="12" lengthAdjust="spacing" textLength="72.0005" x="312.7102" y="130.1074">&#24674;&#22797;&#30331;&#24405;&#36523;&#20221;</text><rect fill="#F1F1F1" height="33.9688" rx="12.5" ry="12.5" style="stroke:#181818;stroke-width:0.5;" width="68.0004" x="314.7103" y="211.3398"/><text fill="#000000" font-family="Noto Sans CJK SC" font-size="12" lengthAdjust="spacing" textLength="48.0004" x="324.7103" y="232.4785">&#25298;&#32477;&#35775;&#38382;</text><ellipse cx="348.7105" cy="284.8242" fill="none" rx="11" ry="11" style="stroke:#222222;stroke-width:1;"/><ellipse cx="348.7105" cy="284.8242" fill="#222222" rx="6" ry="6" style="stroke:#222222;stroke-width:1;"/><polygon fill="#F1F1F1" points="323.7915,162.9375,373.6296,162.9375,385.6296,174.9375,373.6296,186.9375,323.7915,186.9375,311.7915,174.9375,323.7915,162.9375" style="stroke:#181818;stroke-width:0.5;"/><text fill="#000000" font-family="Noto Sans CJK SC" font-size="11" lengthAdjust="spacing" textLength="10.9999" x="352.7105" y="197.1479">&#21542;</text><text fill="#000000" font-family="Noto Sans CJK SC" font-size="11" lengthAdjust="spacing" textLength="49.8381" x="323.7915" y="178.7456">&#35748;&#35777;&#36890;&#36807;?</text><text fill="#000000" font-family="Noto Sans CJK SC" font-size="11" lengthAdjust="spacing" textLength="10.9999" x="385.6296" y="172.3433">&#26159;</text><polygon fill="#F1F1F1" points="304.6866,337.8242,392.7345,337.8242,404.7345,349.8242,392.7345,361.8242,304.6866,361.8242,292.6866,349.8242,304.6866,337.8242" style="stroke:#181818;stroke-width:0.5;"/><text fill="#000000" font-family="Noto Sans CJK SC" font-size="11" lengthAdjust="spacing" textLength="88.0479" x="304.6866" y="353.6323">&#35831;&#27714;&#31867;&#22411; = &#26816;&#32034;?</text><text fill="#000000" font-family="Noto Sans CJK SC" font-size="11" lengthAdjust="spacing" textLength="10.9999" x="281.6867" y="347.23">&#26159;</text><text fill="#000000" font-family="Noto Sans CJK SC" font-size="11" lengthAdjust="spacing" textLength="43.9997" x="404.7345" y="347.23">&#25991;&#20214;&#35775;&#38382;</text><polygon fill="#F1F1F1" points="122.8106,371.8242,203.8173,371.8242,215.8173,383.8242,203.8173,395.8242,122.8106,395.8242,110.8106,383.8242,122.8106,371.8242" style="stroke:#181818;stroke-width:0.5;"/><text fill="#000000" font-family="Noto Sans CJK SC" font-size="11" lengthAdjust="spacing" textLength="81.0067" x="122.8106" y="387.6323">&#35282;&#33394; = ADMIN?</text><text fill="#000000" font-family="Noto Sans CJK SC" font-size="11" lengthAdjust="spacing" textLength="10.9999" x="99.8107" y="381.23">&#26159;</text><text fill="#000000" font-family="Noto Sans CJK SC" font-size="11" lengthAdjust="spacing" textLength="10.9999" x="215.8173" y="381.23">&#21542;</text><rect fill="#F1F1F1" height="47.9375" rx="12.5" ry="12.5" style="stroke:#181818;stroke-width:0.5;" width="108.0436" x="16" y="405.8242"/><text fill="#000000" font-family="Noto Sans CJK SC" font-size="12" lengthAdjust="spacing" textLength="88.0436" x="26" y="426.9629">&#19981;&#27880;&#20837;&#39069;&#22806;&#36807;&#28388;;</text><text fill="#000000" font-family="Noto Sans CJK SC" font-size="12" lengthAdjust="spacing" textLength="72.0005" x="26" y="440.9316">&#20801;&#35768;&#20840;&#22495;&#20505;&#36873;</text><rect fill="#F1F1F1" height="33.9688" rx="12.5" ry="12.5" style="stroke:#181818;stroke-width:0.5;" width="145.8713" x="183.6705" y="405.8242"/><text fill="#000000" font-family="Noto Sans CJK SC" font-size="12" lengthAdjust="spacing" textLength="125.8713" x="193.6705" y="426.9629">&#35745;&#31639; EffectiveTags(u)</text><rect fill="#F1F1F1" height="61.9063" rx="12.5" ry="12.5" style="stroke:#181818;stroke-width:0.5;" width="225.125" x="144.0436" y="473.7617"/><text fill="#000000" font-family="Noto Sans CJK SC" font-size="12" lengthAdjust="spacing" textLength="121.7463" x="154.0436" y="494.9004">&#27880;&#20837; metadata filter:</text><text fill="#000000" font-family="Noto Sans CJK SC" font-size="12" lengthAdjust="spacing" textLength="205.125" x="154.0436" y="508.8691">owner = userId OR isPublic = true</text><text fill="#000000" font-family="Noto Sans CJK SC" font-size="12" lengthAdjust="spacing" textLength="180.416" x="154.0436" y="522.8379">OR orgTag in EffectiveTags(u)</text><polygon fill="#F1F1F1" points="163.314,541.668,175.314,553.668,163.314,565.668,151.314,553.668,163.314,541.668" style="stroke:#181818;stroke-width:0.5;"/><rect fill="#F1F1F1" height="33.9688" rx="12.5" ry="12.5" style="stroke:#181818;stroke-width:0.5;" width="92.0005" x="117.3137" y="600.668"/><text fill="#000000" font-family="Noto Sans CJK SC" font-size="12" lengthAdjust="spacing" textLength="72.0005" x="127.3137" y="621.8066">&#25191;&#34892;&#28151;&#21512;&#26816;&#32034;</text><ellipse cx="163.314" cy="680.6367" fill="none" rx="11" ry="11" style="stroke:#222222;stroke-width:1;"/><ellipse cx="163.314" cy="680.6367" fill="#222222" rx="6" ry="6" style="stroke:#222222;stroke-width:1;"/><polygon fill="#F1F1F1" points="493.6037,371.8242,574.6104,371.8242,586.6104,383.8242,574.6104,395.8242,493.6037,395.8242,481.6037,383.8242,493.6037,371.8242" style="stroke:#181818;stroke-width:0.5;"/><text fill="#000000" font-family="Noto Sans CJK SC" font-size="11" lengthAdjust="spacing" textLength="81.0067" x="493.6037" y="387.6323">&#35282;&#33394; = ADMIN?</text><text fill="#000000" font-family="Noto Sans CJK SC" font-size="11" lengthAdjust="spacing" textLength="10.9999" x="470.6038" y="381.23">&#26159;</text><text fill="#000000" font-family="Noto Sans CJK SC" font-size="11" lengthAdjust="spacing" textLength="10.9999" x="586.6104" y="381.23">&#21542;</text><rect fill="#F1F1F1" height="33.9688" rx="12.5" ry="12.5" style="stroke:#181818;stroke-width:0.5;" width="62.8906" x="409.1686" y="405.8242"/><text fill="#000000" font-family="Noto Sans CJK SC" font-size="12" lengthAdjust="spacing" textLength="42.8906" x="419.1686" y="426.9629">ALLOW</text><ellipse cx="440.6139" cy="484.7617" fill="none" rx="11" ry="11" style="stroke:#222222;stroke-width:1;"/><ellipse cx="440.6139" cy="484.7617" fill="#222222" rx="6" ry="6" style="stroke:#222222;stroke-width:1;"/><rect fill="#F1F1F1" height="33.9688" rx="12.5" ry="12.5" style="stroke:#181818;stroke-width:0.5;" width="219.7406" x="517.7299" y="405.8242"/><text fill="#000000" font-family="Noto Sans CJK SC" font-size="12" lengthAdjust="spacing" textLength="199.7406" x="527.7299" y="426.9629">&#21152;&#36733;&#25991;&#26723; owner / isPublic / orgTag</text><polygon fill="#F1F1F1" points="582.4723,473.7617,672.7282,473.7617,684.7282,485.7617,672.7282,497.7617,582.4723,497.7617,570.4723,485.7617,582.4723,473.7617" style="stroke:#181818;stroke-width:0.5;"/><text fill="#000000" font-family="Noto Sans CJK SC" font-size="11" lengthAdjust="spacing" textLength="90.2559" x="582.4723" y="489.5698">owner = userId?</text><text fill="#000000" font-family="Noto Sans CJK SC" font-size="11" lengthAdjust="spacing" textLength="10.9999" x="559.4724" y="483.1675">&#26159;</text><text fill="#000000" font-family="Noto Sans CJK SC" font-size="11" lengthAdjust="spacing" textLength="10.9999" x="684.7282" y="483.1675">&#21542;</text><rect fill="#F1F1F1" height="33.9688" rx="12.5" ry="12.5" style="stroke:#181818;stroke-width:0.5;" width="62.8906" x="502.0592" y="507.7617"/><text fill="#000000" font-family="Noto Sans CJK SC" font-size="12" lengthAdjust="spacing" textLength="42.8906" x="512.0592" y="528.9004">ALLOW</text><polygon fill="#F1F1F1" points="678.6171,507.7617,764.7748,507.7617,776.7748,519.7617,764.7748,531.7617,678.6171,531.7617,666.6171,519.7617,678.6171,507.7617" style="stroke:#181818;stroke-width:0.5;"/><text fill="#000000" font-family="Noto Sans CJK SC" font-size="11" lengthAdjust="spacing" textLength="86.1577" x="678.6171" y="523.5698">isPublic = true?</text><text fill="#000000" font-family="Noto Sans CJK SC" font-size="11" lengthAdjust="spacing" textLength="10.9999" x="655.6172" y="517.1675">&#26159;</text><text fill="#000000" font-family="Noto Sans CJK SC" font-size="11" lengthAdjust="spacing" textLength="10.9999" x="776.7748" y="517.1675">&#21542;</text><rect fill="#F1F1F1" height="33.9688" rx="12.5" ry="12.5" style="stroke:#181818;stroke-width:0.5;" width="62.8906" x="594.9499" y="541.7617"/><text fill="#000000" font-family="Noto Sans CJK SC" font-size="12" lengthAdjust="spacing" textLength="42.8906" x="604.9499" y="562.9004">ALLOW</text><polygon fill="#F1F1F1" points="741.2858,541.7617,892.7077,541.7617,904.7077,553.7617,892.7077,565.7617,741.2858,565.7617,729.2858,553.7617,741.2858,541.7617" style="stroke:#181818;stroke-width:0.5;"/><text fill="#000000" font-family="Noto Sans CJK SC" font-size="11" lengthAdjust="spacing" textLength="151.4219" x="741.2858" y="557.5698">orgTag in EffectiveTags(u)?</text><text fill="#000000" font-family="Noto Sans CJK SC" font-size="11" lengthAdjust="spacing" textLength="10.9999" x="718.2859" y="551.1675">&#26159;</text><text fill="#000000" font-family="Noto Sans CJK SC" font-size="11" lengthAdjust="spacing" textLength="10.9999" x="904.7077" y="551.1675">&#21542;</text><rect fill="#F1F1F1" height="33.9688" rx="12.5" ry="12.5" style="stroke:#181818;stroke-width:0.5;" width="62.8906" x="687.8405" y="575.7617"/><text fill="#000000" font-family="Noto Sans CJK SC" font-size="12" lengthAdjust="spacing" textLength="42.8906" x="697.8405" y="596.9004">ALLOW</text><rect fill="#F1F1F1" height="33.9688" rx="12.5" ry="12.5" style="stroke:#181818;stroke-width:0.5;" width="53.1289" x="888.1432" y="575.7617"/><text fill="#000000" font-family="Noto Sans CJK SC" font-size="12" lengthAdjust="spacing" textLength="33.1289" x="898.1432" y="596.9004">DENY</text><polygon fill="#F1F1F1" points="816.9967,615.7305,828.9967,627.7305,816.9967,639.7305,804.9967,627.7305,816.9967,615.7305" style="stroke:#181818;stroke-width:0.5;"/><polygon fill="#F1F1F1" points="721.696,645.7305,733.696,657.7305,721.696,669.7305,709.696,657.7305,721.696,645.7305" style="stroke:#181818;stroke-width:0.5;"/><polygon fill="#F1F1F1" points="627.6003,675.7305,639.6003,687.7305,627.6003,699.7305,615.6003,687.7305,627.6003,675.7305" style="stroke:#181818;stroke-width:0.5;"/><ellipse cx="627.6003" cy="730.7305" fill="none" rx="11" ry="11" style="stroke:#222222;stroke-width:1;"/><ellipse cx="627.6003" cy="730.7305" fill="#222222" rx="6" ry="6" style="stroke:#222222;stroke-width:1;"/><line style="stroke:#181818;stroke-width:1;" x1="348.7105" x2="348.7105" y1="35" y2="55"/><polygon fill="#181818" points="344.7105,45,348.7105,55,352.7105,45,348.7105,49" style="stroke:#181818;stroke-width:1;"/><line style="stroke:#181818;stroke-width:1;" x1="348.7105" x2="348.7105" y1="88.9688" y2="108.9688"/><polygon fill="#181818" points="344.7105,98.9688,348.7105,108.9688,352.7105,98.9688,348.7105,102.9688" style="stroke:#181818;stroke-width:1;"/><line style="stroke:#181818;stroke-width:1;" x1="348.7105" x2="348.7105" y1="245.3086" y2="273.8242"/><polygon fill="#181818" points="344.7105,263.8242,348.7105,273.8242,352.7105,263.8242,348.7105,267.8242" style="stroke:#181818;stroke-width:1;"/><line style="stroke:#181818;stroke-width:1;" x1="348.7105" x2="348.7105" y1="186.9375" y2="211.3398"/><polygon fill="#181818" points="344.7105,201.3398,348.7105,211.3398,352.7105,201.3398,348.7105,205.3398" style="stroke:#181818;stroke-width:1;"/><line style="stroke:#181818;stroke-width:1;" x1="385.6296" x2="397.6296" y1="174.9375" y2="174.9375"/><polygon fill="#181818" points="393.6296,243.8242,397.6296,253.8242,401.6296,243.8242,397.6296,247.8242" style="stroke:#181818;stroke-width:1;"/><line style="stroke:#181818;stroke-width:1;" x1="397.6296" x2="397.6296" y1="174.9375" y2="317.8242"/><line style="stroke:#181818;stroke-width:1;" x1="397.6296" x2="348.7105" y1="317.8242" y2="317.8242"/><line style="stroke:#181818;stroke-width:1;" x1="348.7105" x2="348.7105" y1="317.8242" y2="337.8242"/><polygon fill="#181818" points="344.7105,327.8242,348.7105,337.8242,352.7105,327.8242,348.7105,331.8242" style="stroke:#181818;stroke-width:1;"/><line style="stroke:#181818;stroke-width:1;" x1="348.7105" x2="348.7105" y1="142.9375" y2="162.9375"/><polygon fill="#181818" points="344.7105,152.9375,348.7105,162.9375,352.7105,152.9375,348.7105,156.9375" style="stroke:#181818;stroke-width:1;"/><line style="stroke:#181818;stroke-width:1;" x1="256.6061" x2="256.6061" y1="439.793" y2="473.7617"/><polygon fill="#181818" points="252.6061,463.7617,256.6061,473.7617,260.6061,463.7617,256.6061,467.7617" style="stroke:#181818;stroke-width:1;"/><line style="stroke:#181818;stroke-width:1;" x1="110.8106" x2="70.0218" y1="383.8242" y2="383.8242"/><line style="stroke:#181818;stroke-width:1;" x1="70.0218" x2="70.0218" y1="383.8242" y2="405.8242"/><polygon fill="#181818" points="66.0218,395.8242,70.0218,405.8242,74.0218,395.8242,70.0218,399.8242" style="stroke:#181818;stroke-width:1;"/><line style="stroke:#181818;stroke-width:1;" x1="215.8173" x2="256.6061" y1="383.8242" y2="383.8242"/><line style="stroke:#181818;stroke-width:1;" x1="256.6061" x2="256.6061" y1="383.8242" y2="405.8242"/><polygon fill="#181818" points="252.6061,395.8242,256.6061,405.8242,260.6061,395.8242,256.6061,399.8242" style="stroke:#181818;stroke-width:1;"/><line style="stroke:#181818;stroke-width:1;" x1="70.0218" x2="70.0218" y1="453.7617" y2="553.668"/><line style="stroke:#181818;stroke-width:1;" x1="70.0218" x2="151.314" y1="553.668" y2="553.668"/><polygon fill="#181818" points="141.314,549.668,151.314,553.668,141.314,557.668,145.314,553.668" style="stroke:#181818;stroke-width:1;"/><line style="stroke:#181818;stroke-width:1;" x1="256.6061" x2="256.6061" y1="535.668" y2="553.668"/><line style="stroke:#181818;stroke-width:1;" x1="256.6061" x2="175.314" y1="553.668" y2="553.668"/><polygon fill="#181818" points="185.314,549.668,175.314,553.668,185.314,557.668,181.314,553.668" style="stroke:#181818;stroke-width:1;"/><line style="stroke:#181818;stroke-width:1;" x1="163.314" x2="163.314" y1="565.668" y2="600.668"/><polygon fill="#181818" points="159.314,590.668,163.314,600.668,167.314,590.668,163.314,594.668" style="stroke:#181818;stroke-width:1;"/><line style="stroke:#181818;stroke-width:1;" x1="163.314" x2="163.314" y1="634.6367" y2="669.6367"/><polygon fill="#181818" points="159.314,659.6367,163.314,669.6367,167.314,659.6367,163.314,663.6367" style="stroke:#181818;stroke-width:1;"/><line style="stroke:#181818;stroke-width:1;" x1="440.6139" x2="440.6139" y1="439.793" y2="473.7617"/><polygon fill="#181818" points="436.6139,463.7617,440.6139,473.7617,444.6139,463.7617,440.6139,467.7617" style="stroke:#181818;stroke-width:1;"/><line style="stroke:#181818;stroke-width:1;" x1="729.2858" x2="719.2858" y1="553.7617" y2="553.7617"/><line style="stroke:#181818;stroke-width:1;" x1="719.2858" x2="719.2858" y1="553.7617" y2="575.7617"/><polygon fill="#181818" points="715.2858,565.7617,719.2858,575.7617,723.2858,565.7617,719.2858,569.7617" style="stroke:#181818;stroke-width:1;"/><line style="stroke:#181818;stroke-width:1;" x1="904.7077" x2="914.7077" y1="553.7617" y2="553.7617"/><line style="stroke:#181818;stroke-width:1;" x1="914.7077" x2="914.7077" y1="553.7617" y2="575.7617"/><polygon fill="#181818" points="910.7077,565.7617,914.7077,575.7617,918.7077,565.7617,914.7077,569.7617" style="stroke:#181818;stroke-width:1;"/><line style="stroke:#181818;stroke-width:1;" x1="719.2858" x2="719.2858" y1="609.7305" y2="627.7305"/><line style="stroke:#181818;stroke-width:1;" x1="719.2858" x2="804.9967" y1="627.7305" y2="627.7305"/><polygon fill="#181818" points="794.9967,623.7305,804.9967,627.7305,794.9967,631.7305,798.9967,627.7305" style="stroke:#181818;stroke-width:1;"/><line style="stroke:#181818;stroke-width:1;" x1="914.7077" x2="914.7077" y1="609.7305" y2="627.7305"/><line style="stroke:#181818;stroke-width:1;" x1="914.7077" x2="828.9967" y1="627.7305" y2="627.7305"/><polygon fill="#181818" points="838.9967,623.7305,828.9967,627.7305,838.9967,631.7305,834.9967,627.7305" style="stroke:#181818;stroke-width:1;"/><line style="stroke:#181818;stroke-width:1;" x1="666.6171" x2="626.3952" y1="519.7617" y2="519.7617"/><line style="stroke:#181818;stroke-width:1;" x1="626.3952" x2="626.3952" y1="519.7617" y2="541.7617"/><polygon fill="#181818" points="622.3952,531.7617,626.3952,541.7617,630.3952,531.7617,626.3952,535.7617" style="stroke:#181818;stroke-width:1;"/><line style="stroke:#181818;stroke-width:1;" x1="776.7748" x2="816.9967" y1="519.7617" y2="519.7617"/><line style="stroke:#181818;stroke-width:1;" x1="816.9967" x2="816.9967" y1="519.7617" y2="541.7617"/><polygon fill="#181818" points="812.9967,531.7617,816.9967,541.7617,820.9967,531.7617,816.9967,535.7617" style="stroke:#181818;stroke-width:1;"/><line style="stroke:#181818;stroke-width:1;" x1="626.3952" x2="626.3952" y1="575.7305" y2="657.7305"/><line style="stroke:#181818;stroke-width:1;" x1="626.3952" x2="709.696" y1="657.7305" y2="657.7305"/><polygon fill="#181818" points="699.696,653.7305,709.696,657.7305,699.696,661.7305,703.696,657.7305" style="stroke:#181818;stroke-width:1;"/><line style="stroke:#181818;stroke-width:1;" x1="816.9967" x2="816.9967" y1="639.7305" y2="657.7305"/><line style="stroke:#181818;stroke-width:1;" x1="816.9967" x2="733.696" y1="657.7305" y2="657.7305"/><polygon fill="#181818" points="743.696,653.7305,733.696,657.7305,743.696,661.7305,739.696,657.7305" style="stroke:#181818;stroke-width:1;"/><line style="stroke:#181818;stroke-width:1;" x1="570.4723" x2="533.5045" y1="485.7617" y2="485.7617"/><line style="stroke:#181818;stroke-width:1;" x1="533.5045" x2="533.5045" y1="485.7617" y2="507.7617"/><polygon fill="#181818" points="529.5045,497.7617,533.5045,507.7617,537.5045,497.7617,533.5045,501.7617" style="stroke:#181818;stroke-width:1;"/><line style="stroke:#181818;stroke-width:1;" x1="684.7282" x2="721.696" y1="485.7617" y2="485.7617"/><line style="stroke:#181818;stroke-width:1;" x1="721.696" x2="721.696" y1="485.7617" y2="507.7617"/><polygon fill="#181818" points="717.696,497.7617,721.696,507.7617,725.696,497.7617,721.696,501.7617" style="stroke:#181818;stroke-width:1;"/><line style="stroke:#181818;stroke-width:1;" x1="533.5045" x2="533.5045" y1="541.7305" y2="687.7305"/><line style="stroke:#181818;stroke-width:1;" x1="533.5045" x2="615.6003" y1="687.7305" y2="687.7305"/><polygon fill="#181818" points="605.6003,683.7305,615.6003,687.7305,605.6003,691.7305,609.6003,687.7305" style="stroke:#181818;stroke-width:1;"/><line style="stroke:#181818;stroke-width:1;" x1="721.696" x2="721.696" y1="669.7305" y2="687.7305"/><line style="stroke:#181818;stroke-width:1;" x1="721.696" x2="639.6003" y1="687.7305" y2="687.7305"/><polygon fill="#181818" points="649.6003,683.7305,639.6003,687.7305,649.6003,691.7305,645.6003,687.7305" style="stroke:#181818;stroke-width:1;"/><line style="stroke:#181818;stroke-width:1;" x1="627.6003" x2="627.6003" y1="439.793" y2="473.7617"/><polygon fill="#181818" points="623.6003,463.7617,627.6003,473.7617,631.6003,463.7617,627.6003,467.7617" style="stroke:#181818;stroke-width:1;"/><line style="stroke:#181818;stroke-width:1;" x1="627.6003" x2="627.6003" y1="699.7305" y2="719.7305"/><polygon fill="#181818" points="623.6003,709.7305,627.6003,719.7305,631.6003,709.7305,627.6003,713.7305" style="stroke:#181818;stroke-width:1;"/><line style="stroke:#181818;stroke-width:1;" x1="481.6037" x2="440.6139" y1="383.8242" y2="383.8242"/><line style="stroke:#181818;stroke-width:1;" x1="440.6139" x2="440.6139" y1="383.8242" y2="405.8242"/><polygon fill="#181818" points="436.6139,395.8242,440.6139,405.8242,444.6139,395.8242,440.6139,399.8242" style="stroke:#181818;stroke-width:1;"/><line style="stroke:#181818;stroke-width:1;" x1="586.6104" x2="627.6003" y1="383.8242" y2="383.8242"/><line style="stroke:#181818;stroke-width:1;" x1="627.6003" x2="627.6003" y1="383.8242" y2="405.8242"/><polygon fill="#181818" points="623.6003,395.8242,627.6003,405.8242,631.6003,395.8242,627.6003,399.8242" style="stroke:#181818;stroke-width:1;"/><line style="stroke:#181818;stroke-width:1;" x1="292.6866" x2="163.314" y1="349.8242" y2="349.8242"/><line style="stroke:#181818;stroke-width:1;" x1="163.314" x2="163.314" y1="349.8242" y2="371.8242"/><polygon fill="#181818" points="159.314,361.8242,163.314,371.8242,167.314,361.8242,163.314,365.8242" style="stroke:#181818;stroke-width:1;"/><line style="stroke:#181818;stroke-width:1;" x1="404.7345" x2="534.1071" y1="349.8242" y2="349.8242"/><line style="stroke:#181818;stroke-width:1;" x1="534.1071" x2="534.1071" y1="349.8242" y2="371.8242"/><polygon fill="#181818" points="530.1071,361.8242,534.1071,371.8242,538.1071,361.8242,534.1071,365.8242" style="stroke:#181818;stroke-width:1;"/><?plantuml-src ZP5TIy9G6CVlzocUIxtotX4Xw8LG6X54uCtAinhOZErOjng8MHaIlOEPBxr0CEc5Z8RuPJndns_HSSUmwO9knjbpdlt-BpEnOc0fJ4_kwTa7wtJfoxxCNmjDqguurpRfdRElvu7TaoL9Ko70h3Rh58Rv6zOlpGS1Ro4T0lIg4vHGnaGG8DM7e0GGfaUdZbrZLdzuQSbyOEBiZeJqjAQEEQwIysAJsoEO0zhAE-zDBn30NNmyPULNlXA9BiOJqnjSQV1PeMzFf7W_RDP8-uBxedPRJkcaM63M9oa-aNgTvA-7-VB8XySb_vfP3SUwX9YgeWsixQ8LPTCCv8Aok1LWs4POIIjO0LNBO6I4KtfsJqS6DvKpaH5FGt8PD7CfjvxHDlWG6pcKqlaiQsno7cYwBr-qCL8fFxB6CUrsIVL0535fpBLBBqe3-qEK-UzU8WiBoLMHmqNDPYU7TwpNut3QQ85859ha28tj2yH8qXjwLj8hEgKc45Cj-J6y51_EsCoVtVf3fx6-OBuKZINMVksC_v7tF3dzDEiEtESt?></g></svg>